<svg version="1.1" id="Layer_1" xmlns="http://www.w3.org/2000/svg" xmlns:xlink="http://www.w3.org/1999/xlink" x="0px" y="0px" viewBox="0 0 500 500" style="width: 151px;" xml:space="preserve" data-imageid="data-maintenance-9" imageName="Data Maintenance" class="illustrations_image">
<style type="text/css">
	.st0_data-maintenance-9{fill:#68E1FD;}
	.st1_data-maintenance-9{fill:#093F68;}
	.st2_data-maintenance-9{fill:#F7F7F7;}
	.st3_data-maintenance-9{fill:#F56132;}
	.st4_data-maintenance-9{fill:#FFBC0E;}
	.st5_data-maintenance-9{fill:#FFFFFF;}
	.st6_data-maintenance-9{fill:none;}
	.st7_data-maintenance-9{fill:#70CC40;}
	.st8_data-maintenance-9{fill:#DFEAEF;}
</style>
<g id="data_data-maintenance-9">
	<path class="st0_data-maintenance-9 targetColor" d="M361.5,136.8v226.5c0,23.2-52.3,42.1-116.9,42.1s-116.9-18.8-116.9-42.1V136.8H361.5z" style="fill: rgb(12, 100, 169);"/>
	<path class="st1_data-maintenance-9" d="M244.5,407.2c-66.6,0-118.8-19.3-118.8-43.9V136.8c0-1,0.8-1.9,1.9-1.9l0,0h233.8c1,0,1.9,0.8,1.9,1.9v226.5&#10;&#9;&#9;C363.3,387.9,311.1,407.2,244.5,407.2z M129.5,138.6v224.6c0,21.8,52.7,40.2,115.1,40.2s115.1-18.5,115.1-40.2V138.6H129.5z"/>
	<ellipse class="st2_data-maintenance-9" cx="244.5" cy="136.8" rx="116.9" ry="42.1"/>
	<path class="st1_data-maintenance-9" d="M244.5,180.7c-66.6,0-118.8-19.3-118.8-43.9s52.2-43.9,118.8-43.9s118.8,19.3,118.8,43.9&#10;&#9;&#9;S311.1,180.7,244.5,180.7z M244.5,96.5c-62.4,0-115.1,18.4-115.1,40.2S182.2,177,244.5,177s115.1-18.4,115.1-40.2&#10;&#9;&#9;S306.9,96.5,244.5,96.5z"/>
	<path class="st0_data-maintenance-9 targetColor" d="M127.6,206.9c0,23.2,52.3,42.1,116.9,42.1s116.9-18.8,116.9-42.1" style="fill: rgb(12, 100, 169);"/>
	<path class="st1_data-maintenance-9" d="M244.5,250.8c-66.6,0-118.8-19.3-118.8-43.9c-0.1-1,0.7-1.9,1.7-2c1-0.1,1.9,0.7,2,1.7c0,0.1,0,0.2,0,0.3&#10;&#9;&#9;c0,21.8,52.7,40.2,115.1,40.2s115.1-18.4,115.1-40.2c0-1,0.8-1.9,1.9-1.9c1,0,1.9,0.8,1.9,1.9C363.3,231.5,311.1,250.8,244.5,250.8&#10;&#9;&#9;z"/>
	<path class="st0_data-maintenance-9 targetColor" d="M127.6,284.7c0,23.2,52.3,42.1,116.9,42.1s116.9-18.8,116.9-42.1" style="fill: rgb(12, 100, 169);"/>
	<path class="st1_data-maintenance-9" d="M244.5,328.7c-66.6,0-118.8-19.3-118.8-43.9c-0.1-1,0.7-1.9,1.7-2c1-0.1,1.9,0.7,2,1.7c0,0.1,0,0.2,0,0.3&#10;&#9;&#9;c0,21.8,52.7,40.2,115.1,40.2s115.1-18.4,115.1-40.2c0-1,0.8-1.9,1.9-1.9c1,0,1.9,0.8,1.9,1.9C363.3,309.4,311.1,328.7,244.5,328.7&#10;&#9;&#9;z"/>
</g>
<g id="gears_data-maintenance-9">
	<path class="st3_data-maintenance-9" d="M183.4,210c-0.1-2.1-1.6-3.9-3.7-4.4c-1.8-0.4-3.6-0.7-5.4-0.9c-0.5,0-0.9-0.4-1.1-0.9&#10;&#9;&#9;c-0.5-1.4-1.1-2.8-1.7-4.2c-0.2-0.3-0.2-0.8,0.1-1.1c1.1-1.5,2.2-2.9,3.2-4.5c1.2-1.8,1-4.1-0.4-5.7c-1.6-1.8-3.4-3.5-5.1-5.2&#10;&#9;&#9;c-1.8-2-4.8-2.3-6.8-0.6c-1.3,0.9-2.7,1.9-4,2.9c-0.3,0.3-0.7,0.3-1.1,0.1c-1.5-0.7-3-1.3-4.6-1.9c-0.4-0.1-0.7-0.4-0.7-0.8&#10;&#9;&#9;c-0.2-1.6-0.5-3.3-0.8-4.9c-0.4-2.4-2.3-4.1-4.7-4.2c-2.5-0.1-5-0.1-7.6,0c-2.2,0-4.1,1.6-4.6,3.7c-0.4,1.8-0.7,3.7-1,5.5&#10;&#9;&#9;c0,0.4-0.3,0.7-0.7,0.8c-1.5,0.6-2.9,1.2-4.4,1.9c-0.3,0.2-0.7,0.2-1-0.1c-1.4-1.1-2.9-2.1-4.4-3.1c-1.8-1.2-4.2-1.1-5.8,0.4&#10;&#9;&#9;c-1.9,1.8-3.8,3.6-5.6,5.5c-1.7,1.7-1.9,4.5-0.3,6.4c1,1.4,2,2.8,3,4.2c0.1,0.2,0.2,0.5,0.1,0.8c-0.6,1.6-1.2,3.2-1.9,4.7&#10;&#9;&#9;c-0.1,0.2-0.3,0.4-0.6,0.5c-1.6,0.3-3.3,0.6-4.9,0.8c-2.4,0.3-4.2,2.2-4.4,4.6c-0.1,2.6-0.1,5.2,0,7.9c0.1,2.1,1.6,3.9,3.6,4.4&#10;&#9;&#9;c1.9,0.4,3.8,0.7,5.7,1c0.4,0,0.7,0.3,0.8,0.6c0.6,1.5,1.2,3,1.9,4.4c0.2,0.3,0.1,0.7-0.1,0.9c-1,1.4-2,2.7-2.9,4.1&#10;&#9;&#9;c-1.5,2-1.3,4.9,0.6,6.6c1.6,1.6,3.2,3.2,4.8,4.8c1.8,1.9,4.7,2.2,6.8,0.5c1.4-1,2.8-1.9,4.1-2.9c0.2-0.2,0.6-0.2,0.9-0.1&#10;&#9;&#9;c1.4,0.6,2.8,1.2,4.2,1.7c0.5,0.1,0.8,0.5,0.8,1c0.2,1.6,0.5,3.2,0.8,4.8c0.3,2.3,2.2,4.1,4.5,4.2c2.6,0.1,5.3,0.1,7.9,0&#10;&#9;&#9;c2.1-0.1,3.9-1.6,4.4-3.7c0.4-1.8,0.7-3.6,1-5.4c0-0.4,0.3-0.8,0.8-0.9c1.5-0.6,2.9-1.2,4.4-1.8c0.3-0.2,0.7-0.2,1,0.1&#10;&#9;&#9;c1.4,1,2.7,2,4.1,2.9c1,0.7,2.1,1.1,3.3,1c1.1,0,2.2-0.4,2.9-1.2c1.7-1.6,3.4-3.3,5.1-5c2.1-1.8,2.3-4.8,0.6-6.9&#10;&#9;&#9;c-0.9-1.3-1.9-2.7-2.8-4c-0.2-0.3-0.3-0.6-0.1-0.9c0.7-1.5,1.3-3,1.9-4.5c0.1-0.4,0.5-0.7,0.9-0.7c1.6-0.2,3.3-0.5,4.9-0.8&#10;&#9;&#9;c2.4-0.3,4.2-2.3,4.3-4.7C183.5,215.1,183.5,212.6,183.4,210z M143,231.3c-9.6,0-17.4-7.8-17.4-17.5c0-9.6,7.8-17.4,17.5-17.4&#10;&#9;&#9;c9.6,0,17.4,7.8,17.4,17.5C160.5,223.5,152.6,231.3,143,231.3C143,231.3,143,231.3,143,231.3z"/>
	<path class="st1_data-maintenance-9" d="M143.1,233.3H143c-5.2,0-10.2-2.1-13.9-5.9c-3.6-3.6-5.6-8.5-5.5-13.6c0.1-10.7,8.7-19.3,19.4-19.4l0,0&#10;&#9;&#9;c5.2,0,10.1,2.1,13.8,5.8c3.6,3.6,5.7,8.6,5.6,13.7c0,5.2-2.1,10.2-5.8,13.8C153,231.3,148.2,233.3,143.1,233.3z M143,229.3h0.1&#10;&#9;&#9;c4,0,7.9-1.6,10.7-4.4c3-2.9,4.6-6.9,4.6-11c0-4.1-1.6-8-4.5-10.9c-2.9-2.9-6.9-4.6-11-4.6l0,0c-8.5,0-15.4,6.8-15.4,15.3&#10;&#9;&#9;c0,0,0,0.1,0,0.1c-0.1,4.1,1.5,8,4.4,10.8C134.9,227.6,138.9,229.3,143,229.3L143,229.3z"/>
	<path class="st1_data-maintenance-9" d="M142.9,256.3c-1.4,0-2.7,0-4-0.1c-3.3-0.2-5.9-2.6-6.4-5.9c-0.3-1.5-0.5-3-0.7-4.5c-1.2-0.4-2.3-0.9-3.3-1.4&#10;&#9;&#9;c-1.2,0.9-2.4,1.7-3.6,2.6c-2.8,2.2-6.9,1.9-9.3-0.7c-1.5-1.5-3.1-3.1-4.8-4.8c-2.5-2.4-2.9-6.3-0.8-9.2c0.8-1.2,1.6-2.3,2.6-3.6&#10;&#9;&#9;c-0.6-1.3-1-2.4-1.5-3.5l-0.7-0.1c-1.5-0.2-3-0.5-4.5-0.8c-2.9-0.7-5.1-3.2-5.2-6.3c-0.1-2.8-0.1-5.5,0-8c0.2-3.4,2.7-6.1,6.1-6.5&#10;&#9;&#9;c1.4-0.2,2.8-0.4,4.2-0.7c0.5-1.1,1-2.3,1.4-3.5c-0.4-0.6-0.8-1.2-1.2-1.8s-0.9-1.3-1.4-1.9c-2.1-2.7-1.9-6.5,0.5-8.9&#10;&#9;&#9;c1.7-1.9,3.6-3.7,5.7-5.6c2.3-2.1,5.7-2.3,8.2-0.6c1.4,0.9,2.7,1.9,4,2.9c1.2-0.6,2.4-1,3.5-1.5l0.1-0.5c0.2-1.5,0.5-3.1,0.8-4.6&#10;&#9;&#9;c0.7-3,3.4-5.2,6.5-5.3c2.6-0.1,5.1-0.1,7.6,0c3.3,0.1,6.1,2.6,6.7,5.9c0.3,1.5,0.5,2.9,0.7,4.4c1.2,0.5,2.5,1,3.7,1.5&#10;&#9;&#9;c1.1-0.8,2.3-1.6,3.6-2.6c2.9-2.2,7-1.8,9.4,0.9l1.3,1.3c1.3,1.3,2.6,2.6,3.9,4c2,2.3,2.3,5.6,0.6,8.1c-0.9,1.4-1.9,2.7-2.8,4&#10;&#9;&#9;l-0.1,0.1c0.6,1.3,1.1,2.5,1.4,3.5c1.8,0.3,3.4,0.6,5.1,0.9c3,0.7,5.1,3.3,5.2,6.3l0,0c0.1,2.8,0.1,5.4,0,7.9&#10;&#9;&#9;c-0.1,3.3-2.6,6.1-5.9,6.6c-1.5,0.2-2.9,0.5-4.4,0.7c-0.4,1.1-0.9,2.3-1.4,3.5c0.9,1.2,1.7,2.4,2.5,3.5c2.3,2.9,1.9,7.1-0.8,9.5&#10;&#9;&#9;l-1,0.9c-1.4,1.4-2.8,2.8-4.2,4.1c-1.1,1.1-2.7,1.7-4.3,1.7c-1.6,0.1-3.2-0.4-4.5-1.4c-0.5-0.4-1.1-0.8-1.6-1.2s-1.3-0.9-2-1.4&#10;&#9;&#9;c-1.3,0.6-2.4,1-3.5,1.5l-0.1,0.4c-0.2,1.5-0.5,3.1-0.8,4.6c-0.7,3-3.2,5.1-6.3,5.3C145.6,256.3,144.2,256.3,142.9,256.3z&#10;&#9;&#9; M128.3,240.4c0.4,0,0.8,0.1,1.2,0.3c1.3,0.5,2.7,1.2,4.1,1.7c1.1,0.4,1.9,1.4,2.1,2.6c0.2,1.6,0.5,3.2,0.8,4.8&#10;&#9;&#9;c0.1,1.4,1.2,2.4,2.6,2.6c2.5,0.1,5,0.1,7.8,0c1.2-0.1,2.2-0.9,2.5-2.1c0.3-1.4,0.6-3,0.8-4.4l0.1-0.9c0.1-1.1,0.9-2.1,2-2.5&#10;&#9;&#9;c1.3-0.5,2.6-1.1,4.3-1.8c1-0.5,2.1-0.4,3,0.3c0.8,0.6,1.6,1.2,2.4,1.7l1.7,1.2c0.6,0.5,1.3,0.7,2.1,0.6c0.6,0,1.2-0.2,1.6-0.6&#10;&#9;&#9;c1.4-1.3,2.8-2.7,4.1-4l0.9-1c1.3-1.1,1.5-3,0.5-4.3c0,0,0-0.1-0.1-0.1c-0.9-1.3-1.9-2.7-2.8-4c-0.6-0.8-0.8-2-0.3-2.9&#10;&#9;&#9;c0.7-1.6,1.3-3,1.8-4.4c0.4-1,1.3-1.8,2.4-1.9c1.6-0.2,3.2-0.5,4.9-0.8c1.4-0.2,2.5-1.3,2.6-2.8c0.1-2.4,0.1-4.9,0-7.6l0,0&#10;&#9;&#9;c-0.1-1.2-0.9-2.2-2.1-2.5c-1.6-0.4-3.3-0.6-5.2-0.9c-1.2-0.1-2.3-1-2.6-2.2c-0.4-1.2-1-2.5-1.7-4.1c-0.5-1-0.4-2.2,0.3-3.1&#10;&#9;&#9;l0.4-0.6c0.9-1.2,1.9-2.5,2.7-3.8c0.7-1,0.6-2.4-0.2-3.3c-1.2-1.3-2.5-2.6-3.7-3.8l-1.3-1.3c-1-1.3-2.9-1.5-4.2-0.4&#10;&#9;&#9;c0,0,0,0-0.1,0.1c-1.3,0.9-2.6,1.9-3.9,2.8c-0.9,0.7-2.1,0.8-3.1,0.3c-1.5-0.7-3-1.3-4.5-1.9c-1.1-0.3-1.8-1.3-2-2.4&#10;&#9;&#9;c-0.2-1.6-0.5-3.2-0.8-4.9c-0.2-1.4-1.4-2.5-2.8-2.6c-2.4-0.1-4.9-0.1-7.5,0c-1.3,0-2.4,0.9-2.7,2.2c-0.3,1.4-0.6,2.9-0.8,4.4&#10;&#9;&#9;l-0.2,1.1c-0.1,1.1-0.9,2-1.9,2.4c-1.3,0.5-2.7,1.1-4.3,1.8c-1,0.5-2.1,0.4-3-0.3l-0.2-0.1c-1.3-1-2.8-2-4.2-3&#10;&#9;&#9;c-1-0.7-2.4-0.6-3.3,0.2c-2,1.8-3.8,3.6-5.4,5.4c-1.1,1.1-1.2,2.8-0.2,3.9c0.4,0.6,0.9,1.3,1.3,1.9c0.6,0.8,1.1,1.6,1.7,2.4&#10;&#9;&#9;c0.5,0.8,0.6,1.7,0.3,2.6c-0.6,1.6-1.3,3.2-1.9,4.8c-0.4,0.9-1.2,1.5-2.1,1.7c-1.6,0.3-3.3,0.6-4.9,0.8c-1.4,0.1-2.6,1.3-2.7,2.7&#10;&#9;&#9;c-0.1,2.4-0.1,5.1,0,7.8c0.1,1.2,0.9,2.2,2.1,2.5c1.4,0.3,2.8,0.6,4.3,0.8l1.3,0.2c1.1,0.1,2,0.9,2.3,1.9c0.5,1.3,1.1,2.7,1.8,4.4&#10;&#9;&#9;c0.5,1,0.4,2.1-0.3,3c-1.1,1.5-2,2.7-2.9,4c-1,1.2-0.8,3.1,0.3,4.1c1.7,1.7,3.2,3.2,4.8,4.7c1.1,1.3,3,1.4,4.2,0.3c0,0,0,0,0,0&#10;&#9;&#9;c1.4-1,2.7-1.9,4.1-2.9C127.1,240.5,127.7,240.4,128.3,240.4z M111.6,202.8L111.6,202.8z"/>
	<g id="ahcQ9Z_data-maintenance-9">
		<path class="st4_data-maintenance-9" d="M346.2,322c-0.1-2.7-2-5.1-4.7-5.7c-2.3-0.5-4.6-0.9-6.9-1.2c-0.7,0-1.2-0.5-1.4-1.1&#10;&#9;&#9;&#9;c-0.7-1.8-1.5-3.6-2.2-5.4c-0.3-0.4-0.2-1,0.1-1.4c1.4-1.9,2.8-3.8,4.1-5.8c1.5-2.3,1.3-5.3-0.5-7.4c-2.1-2.3-4.4-4.5-6.6-6.7&#10;&#9;&#9;&#9;c-2.3-2.6-6.1-2.9-8.8-0.8c-1.7,1.2-3.5,2.4-5.1,3.7c-0.4,0.3-0.9,0.4-1.4,0.1c-2-0.9-3.9-1.7-5.9-2.4c-0.5-0.1-0.9-0.6-0.9-1.1&#10;&#9;&#9;&#9;c-0.3-2.1-0.7-4.2-1-6.3c-0.4-3.1-3-5.4-6.1-5.5c-3.2-0.1-6.5-0.1-9.7,0c-2.8,0.1-5.3,2-5.9,4.8c-0.5,2.4-0.9,4.8-1.3,7.1&#10;&#9;&#9;&#9;c0,0.5-0.4,0.9-0.9,1.1c-1.9,0.8-3.8,1.6-5.6,2.4c-0.4,0.2-0.9,0.2-1.3-0.1c-1.9-1.4-3.8-2.8-5.7-4.1c-2.3-1.6-5.4-1.4-7.5,0.5&#10;&#9;&#9;&#9;c-2.5,2.3-4.9,4.6-7.2,7.1s-2.3,5.5-0.4,8.3c1.3,1.8,2.6,3.6,3.8,5.5c0.2,0.3,0.2,0.7,0.1,1c-0.8,2-1.6,4.1-2.5,6.1&#10;&#9;&#9;&#9;c-0.2,0.3-0.4,0.5-0.8,0.6c-2.1,0.4-4.2,0.7-6.3,1.1c-3.1,0.3-5.5,2.8-5.6,5.9c-0.1,3.4-0.1,6.8,0,10.2c0.1,2.7,2,5,4.7,5.6&#10;&#9;&#9;&#9;c2.4,0.5,4.9,0.9,7.3,1.3c0.5,0.1,0.9,0.4,1,0.8c0.8,1.9,1.6,3.8,2.4,5.7c0.2,0.4,0.2,0.9-0.1,1.2c-1.3,1.7-2.6,3.5-3.8,5.3&#10;&#9;&#9;&#9;c-2,2.6-1.7,6.3,0.7,8.5c2,2.1,4.1,4.1,6.2,6.2c2.3,2.5,6.1,2.8,8.8,0.7c1.8-1.2,3.5-2.5,5.3-3.8c0.3-0.3,0.8-0.3,1.2-0.1&#10;&#9;&#9;&#9;c1.8,0.8,3.6,1.6,5.4,2.2c0.6,0.2,1,0.7,1,1.3c0.3,2.1,0.7,4.2,1,6.2c0.4,3,2.8,5.3,5.8,5.5c3.4,0.1,6.8,0.1,10.2,0&#10;&#9;&#9;&#9;c2.7-0.1,5.1-2.1,5.7-4.8c0.5-2.3,0.9-4.6,1.2-7c0-0.6,0.4-1.1,1-1.2c1.9-0.7,3.8-1.5,5.7-2.3c0.4-0.2,0.9-0.2,1.2,0.1&#10;&#9;&#9;&#9;c1.8,1.3,3.5,2.5,5.3,3.8c1.2,0.9,2.7,1.4,4.2,1.3c1.4,0,2.8-0.6,3.8-1.5c2.2-2.1,4.4-4.3,6.6-6.5c2.7-2.3,3-6.3,0.8-9&#10;&#9;&#9;&#9;c-1.2-1.7-2.4-3.4-3.7-5.1c-0.3-0.3-0.4-0.8-0.1-1.2c0.8-1.9,1.6-3.8,2.4-5.7c0.1-0.5,0.6-0.8,1.1-0.9c2.1-0.3,4.2-0.7,6.3-1&#10;&#9;&#9;&#9;c3.1-0.4,5.4-2.9,5.5-6C346.3,328.6,346.3,325.3,346.2,322z M294.1,349.5c-12.4,0-22.5-10.1-22.4-22.5c0-12.4,10.1-22.5,22.5-22.4&#10;&#9;&#9;&#9;c12.4,0,22.4,10.1,22.4,22.4C316.6,339.4,306.5,349.5,294.1,349.5C294.1,349.5,294.1,349.5,294.1,349.5L294.1,349.5z"/>
		<path class="st1_data-maintenance-9" d="M294.2,351.5h-0.2c-6.6,0-12.9-2.7-17.5-7.4c-4.5-4.6-7-10.7-6.9-17.1c0.1-13.4,11-24.3,24.5-24.4l0,0&#10;&#9;&#9;&#9;c13.5,0,24.5,10.9,24.5,24.4c0,6.6-2.7,13-7.4,17.6C306.7,349,300.6,351.5,294.2,351.5z M294.1,347.5c5.4,0,10.6-2.1,14.4-5.9&#10;&#9;&#9;&#9;c3.9-3.9,6.1-9.1,6.2-14.6c0-5.4-2.1-10.6-6-14.4c-3.8-3.9-9.1-6.1-14.5-6.1l0,0c-11.3,0-20.4,9-20.5,20.3c0,0.1,0,0.1,0,0.2&#10;&#9;&#9;&#9;c-0.1,5.4,2,10.5,5.8,14.3C283.3,345.3,288.6,347.5,294.1,347.5L294.1,347.5z"/>
		<path class="st1_data-maintenance-9" d="M275.1,361.8c0.5,0,0.9,0.1,1.4,0.3c1.6,0.7,3.5,1.5,5.3,2.2c1.3,0.4,2.2,1.5,2.3,2.9c0.3,2.1,0.7,4.1,1,6.2&#10;&#9;&#9;&#9;c0.2,2,1.9,3.6,3.9,3.8c3.2,0.1,6.5,0.1,10.1,0c1.8-0.1,3.4-1.4,3.8-3.2c0.4-1.9,0.7-3.8,1-5.7l0.2-1.1c0.2-1.3,1-2.3,2.2-2.8&#10;&#9;&#9;&#9;c1.7-0.6,3.5-1.4,5.6-2.3c1-0.5,2.3-0.4,3.2,0.3c1,0.8,2.1,1.5,3.1,2.2l2.2,1.5c0.9,0.6,2,1,3,0.9c0.9,0,1.8-0.4,2.4-1&#10;&#9;&#9;&#9;c1.8-1.7,3.6-3.5,5.3-5.2l1.2-1.2c1.9-1.6,2.2-4.4,0.6-6.3c0,0,0,0,0-0.1c-1.2-1.8-2.5-3.5-3.6-5.1c-0.7-0.9-0.8-2.2-0.3-3.2&#10;&#9;&#9;&#9;c0.9-2,1.6-3.9,2.4-5.7c0.4-1.2,1.4-2,2.7-2.2c2.1-0.3,4.2-0.7,6.3-1c2.1-0.2,3.8-2,3.9-4.1c0.1-3.2,0.1-6.4,0-9.9l0,0&#10;&#9;&#9;&#9;c-0.1-1.8-1.4-3.4-3.1-3.8c-2.2-0.5-4.4-0.8-6.8-1.2c-1.4-0.2-2.5-1.1-2.9-2.4c-0.6-1.5-1.3-3.2-2.2-5.3c-0.5-1.1-0.4-2.4,0.3-3.4&#10;&#9;&#9;&#9;l0.6-0.8c1.2-1.6,2.4-3.3,3.5-4.9c1.1-1.5,0.9-3.6-0.3-5c-1.5-1.7-3.2-3.4-4.8-5l-1.7-1.7c-1.6-1.9-4.4-2.1-6.2-0.6&#10;&#9;&#9;&#9;c-1.9,1.3-3.6,2.5-5.1,3.6c-1,0.8-2.3,0.9-3.4,0.4c-1.9-0.9-3.9-1.7-5.8-2.4c-1.2-0.4-2-1.4-2.2-2.6c-0.3-2.1-0.7-4.2-1-6.3&#10;&#9;&#9;&#9;c-0.3-2.1-2-3.7-4.2-3.8c-3.1-0.1-6.4-0.1-9.6,0c-1.9,0-3.6,1.4-4,3.3c-0.4,1.9-0.7,3.8-1,5.7l-0.2,1.4c-0.2,1.2-1,2.2-2.1,2.6&#10;&#9;&#9;&#9;c-1.7,0.7-3.5,1.4-5.5,2.4c-1.1,0.6-2.4,0.4-3.3-0.3l-0.3-0.2c-1.7-1.3-3.5-2.6-5.4-3.8c-1.5-1.1-3.6-0.9-5,0.3&#10;&#9;&#9;&#9;c-2.6,2.4-4.9,4.7-7,7c-1.6,1.6-1.7,4.1-0.2,5.8c0.6,0.8,1.1,1.6,1.7,2.4c0.7,1,1.4,2,2.1,3.1c0.5,0.8,0.7,1.9,0.3,2.8&#10;&#9;&#9;&#9;c-0.8,2.1-1.6,4.1-2.5,6.1c-0.4,0.9-1.3,1.6-2.3,1.8c-2.1,0.4-4.3,0.8-6.4,1.1c-2.1,0.2-3.8,1.9-4,4c-0.1,3.2-0.1,6.5,0,10&#10;&#9;&#9;&#9;c0.1,1.8,1.4,3.3,3.1,3.8c1.8,0.4,3.7,0.7,5.6,1l1.6,0.3c1.2,0.2,2.1,1,2.5,2.1c0.7,1.7,1.4,3.5,2.4,5.6c0.5,1,0.4,2.3-0.3,3.2&#10;&#9;&#9;&#9;c-1.2,1.7-2.5,3.4-3.7,5.2c-1.4,1.8-1.2,4.4,0.5,6c2.1,2.1,4.1,4.2,6.1,6.1c1.6,1.8,4.4,2,6.2,0.5c1.6-1.1,3.5-2.4,5.2-3.7&#10;&#9;&#9;&#9;C273.9,361.9,274.5,361.7,275.1,361.8z M253.6,313.2L253.6,313.2z M294,381.2c-1.8,0-3.5,0-5.1-0.1c-3.9-0.2-7.2-3.2-7.7-7.1&#10;&#9;&#9;&#9;c-0.4-2-0.7-4-1-6.1c-1.7-0.6-3.4-1.4-4.9-2c-1.7,1.2-3.4,2.4-4.9,3.5c-3.4,2.7-8.3,2.3-11.3-0.9c-2-2-4.1-4-6.2-6.2&#10;&#9;&#9;&#9;c-3.1-2.9-3.5-7.7-0.9-11.1c1.1-1.7,2.4-3.4,3.5-5c-0.8-1.9-1.5-3.5-2.1-5.1l-1.2-0.2c-1.9-0.3-3.9-0.6-5.8-1.1&#10;&#9;&#9;&#9;c-3.5-0.8-6.1-3.9-6.2-7.5c-0.1-3.6-0.1-7,0-10.3c0.2-4,3.3-7.4,7.3-7.8c1.9-0.3,3.8-0.6,5.8-1c0.7-1.7,1.4-3.4,2.1-5.1l-1.8-2.6&#10;&#9;&#9;&#9;c-0.6-0.8-1.2-1.6-1.7-2.4c-2.5-3.2-2.2-7.8,0.6-10.8c2.2-2.4,4.6-4.7,7.3-7.2c2.8-2.5,6.8-2.8,9.9-0.7c1.9,1.2,3.7,2.6,5.4,3.9&#10;&#9;&#9;&#9;c1.9-0.8,3.5-1.5,5.1-2.2l0.2-1c0.3-1.9,0.6-3.9,1.1-5.9c0.8-3.7,4-6.3,7.8-6.4c3.3-0.1,6.6-0.1,9.8,0c4,0.1,7.4,3.1,8,7.1&#10;&#9;&#9;&#9;c0.4,2,0.7,4,1,6c1.8,0.7,3.6,1.4,5.4,2.2c1.5-1.1,3.1-2.2,4.9-3.5c3.5-2.7,8.4-2.2,11.4,1l1.6,1.6c1.7,1.6,3.4,3.4,5,5.1&#10;&#9;&#9;&#9;c2.4,2.7,2.7,6.7,0.7,9.8c-1.1,1.8-2.4,3.5-3.6,5.1l-0.3,0.4c0.9,2,1.5,3.6,2.1,5.1c2.5,0.4,4.6,0.7,6.9,1.2&#10;&#9;&#9;&#9;c3.6,0.8,6.2,3.9,6.3,7.6l0,0c0.1,3.6,0.1,6.9,0,10.1c-0.1,4.1-3.2,7.4-7.2,8c-2,0.3-4,0.7-6,1c-0.6,1.6-1.3,3.3-2.1,5.1&#10;&#9;&#9;&#9;c1.1,1.5,2.3,3.2,3.4,4.8c2.7,3.5,2.3,8.5-1,11.5l-1.2,1.2c-1.8,1.8-3.6,3.5-5.4,5.3c-1.4,1.3-3.2,2.1-5.1,2.1&#10;&#9;&#9;&#9;c-2,0.1-3.9-0.5-5.5-1.7l-2.1-1.6l-2.8-2c-1.9,0.8-3.5,1.5-5.1,2.1l-0.1,0.9c-0.3,1.9-0.6,4-1.1,5.9c-0.8,3.6-3.9,6.2-7.6,6.3&#10;&#9;&#9;&#9;C297.4,381.1,295.7,381.2,294,381.2L294,381.2z"/>
	</g>
	<g id="ahcQ9Z-2_data-maintenance-9">
		<path class="st1_data-maintenance-9" d="M252.2,280.4c0-1.2-0.9-2.2-2-2.4c-1-0.2-2-0.4-2.9-0.5c-0.3,0-0.5-0.2-0.6-0.5c-0.3-0.8-0.6-1.5-1-2.3&#10;&#9;&#9;&#9;c-0.1-0.2-0.1-0.4,0.1-0.6c0.6-0.8,1.2-1.6,1.7-2.5c0.6-1,0.6-2.3-0.2-3.1c-0.9-1-1.9-1.9-2.8-2.8c-1-1.1-2.6-1.2-3.7-0.4&#10;&#9;&#9;&#9;c-0.7,0.5-1.5,1-2.2,1.6c-0.2,0.1-0.4,0.2-0.6,0.1c-0.8-0.4-1.7-0.7-2.5-1c-0.2-0.1-0.4-0.2-0.4-0.5c-0.1-0.9-0.3-1.8-0.4-2.7&#10;&#9;&#9;&#9;c-0.2-1.3-1.3-2.3-2.6-2.3c-1.4,0-2.8,0-4.1,0c-1.2,0-2.2,0.8-2.5,2c-0.2,1-0.4,2-0.5,3c0,0.2-0.2,0.4-0.4,0.5&#10;&#9;&#9;&#9;c-0.8,0.3-1.6,0.7-2.4,1c-0.2,0.1-0.4,0.1-0.6,0c-0.8-0.6-1.6-1.2-2.4-1.7c-1-0.7-2.3-0.6-3.1,0.2c-1.1,1-2.1,2-3,3&#10;&#9;&#9;&#9;c-0.9,1-1,2.5-0.2,3.5c0.5,0.8,1.1,1.5,1.6,2.3c0.1,0.1,0.1,0.3,0.1,0.4c-0.3,0.9-0.7,1.7-1.1,2.6c-0.1,0.1-0.2,0.2-0.3,0.3&#10;&#9;&#9;&#9;c-0.9,0.2-1.8,0.3-2.7,0.5c-1.3,0.2-2.3,1.2-2.4,2.5c-0.1,1.4,0,2.9,0,4.3c0.1,1.2,0.9,2.1,2,2.4c1,0.2,2.1,0.4,3.1,0.6&#10;&#9;&#9;&#9;c0.2,0,0.4,0.2,0.4,0.4c0.3,0.8,0.7,1.6,1,2.4c0.1,0.2,0.1,0.4,0,0.5c-0.6,0.7-1.1,1.5-1.6,2.2c-0.8,1.1-0.7,2.7,0.3,3.6&#10;&#9;&#9;&#9;c0.8,0.9,1.7,1.8,2.6,2.6c1,1.1,2.6,1.2,3.7,0.3c0.8-0.5,1.5-1,2.2-1.6c0.1-0.1,0.3-0.1,0.5,0c0.8,0.3,1.5,0.6,2.3,0.9&#10;&#9;&#9;&#9;c0.2,0.1,0.4,0.3,0.4,0.5c0.1,0.9,0.3,1.8,0.4,2.6c0.2,1.3,1.2,2.2,2.5,2.3c1.4,0,2.9,0,4.3,0c1.2-0.1,2.1-0.9,2.4-2&#10;&#9;&#9;&#9;c0.2-1,0.4-2,0.5-3c0-0.2,0.2-0.4,0.4-0.5c0.8-0.3,1.6-0.6,2.4-1c0.2-0.1,0.4-0.1,0.5,0.1c0.7,0.5,1.5,1.1,2.2,1.6&#10;&#9;&#9;&#9;c0.5,0.4,1.2,0.6,1.8,0.5c0.6,0,1.2-0.2,1.6-0.6c1-0.9,1.9-1.8,2.8-2.7c1.1-1,1.3-2.6,0.3-3.8c-0.5-0.7-1-1.5-1.6-2.2&#10;&#9;&#9;&#9;c-0.1-0.1-0.1-0.4-0.1-0.5c0.4-0.8,0.7-1.6,1-2.4c0.1-0.2,0.2-0.4,0.5-0.4l2.7-0.4c1.3-0.2,2.3-1.3,2.3-2.6&#10;&#9;&#9;&#9;C252.2,283.2,252.2,281.8,252.2,280.4z M230.1,292c-5.3,0-9.5-4.3-9.5-9.5c0-5.3,4.3-9.5,9.6-9.5c5.3,0,9.5,4.3,9.5,9.5&#10;&#9;&#9;&#9;C239.6,287.8,235.4,292,230.1,292C230.1,292,230.1,292,230.1,292z"/>
	</g>
</g>
<g id="speech-bubble_data-maintenance-9">
	<path class="st5_data-maintenance-9" d="M235.5,186.9h156.8c1.8,0,3.3,1.5,3.3,3.3v39.1c0,1.8-1.5,3.3-3.3,3.3H235.5c-1.8,0-3.3-1.5-3.3-3.3v-39.1&#10;&#9;&#9;C232.2,188.4,233.7,186.9,235.5,186.9z"/>
	<path class="st1_data-maintenance-9" d="M389.4,234.5H238.3c-4.4,0-8-3.6-8-8v-33.4c0-4.4,3.6-8,8-8h151.1c4.4,0,8,3.6,8,8v33.4&#10;&#9;&#9;C397.4,230.9,393.8,234.5,389.4,234.5C389.4,234.5,389.4,234.5,389.4,234.5z M238.3,188.8c-2.4,0-4.3,1.9-4.3,4.3v33.4&#10;&#9;&#9;c0,2.4,1.9,4.3,4.3,4.3h151.1c2.4,0,4.3-1.9,4.3-4.3v-33.4c0-2.4-1.9-4.3-4.3-4.3H238.3z"/>
	<path class="st1_data-maintenance-9" d="M259.2,216.1l0.1-11.2h-0.1l-4.1,11.2h-2.7l-4-11.2h-0.1l0.1,11.2h-3.6v-15.8h5.4l3.6,10.1h0.1l3.4-10.1h5.6&#10;&#9;&#9;v15.8H259.2z"/>
	<path class="st1_data-maintenance-9" d="M265.8,206.5c0.7-0.6,1.4-1.1,2.3-1.4c0.9-0.3,1.8-0.5,2.7-0.5c0.8,0,1.6,0.1,2.4,0.4c0.6,0.2,1.2,0.6,1.6,1.1&#10;&#9;&#9;c0.4,0.5,0.7,1.2,0.9,1.8c0.2,0.9,0.3,1.7,0.3,2.6v5.6h-3.3v-1.2h-0.1c-0.3,0.5-0.8,0.9-1.3,1.1c-0.6,0.3-1.2,0.4-1.9,0.4&#10;&#9;&#9;c-0.5,0-0.9-0.1-1.4-0.2c-0.5-0.1-0.9-0.3-1.3-0.6c-0.4-0.3-0.8-0.6-1-1.1c-0.3-0.5-0.4-1.1-0.4-1.6c0-0.7,0.2-1.4,0.7-1.9&#10;&#9;&#9;c0.5-0.5,1-0.9,1.7-1.1c0.7-0.3,1.5-0.5,2.3-0.5c0.8-0.1,1.7-0.1,2.5-0.1V209c0-0.5-0.2-0.9-0.6-1.2c-0.4-0.3-0.9-0.4-1.4-0.4&#10;&#9;&#9;c-0.5,0-1,0.1-1.5,0.3c-0.5,0.2-0.9,0.5-1.2,0.8L265.8,206.5z M272.5,211.2h-0.5c-0.4,0-0.8,0-1.2,0.1c-0.4,0-0.7,0.1-1.1,0.2&#10;&#9;&#9;c-0.3,0.1-0.6,0.2-0.8,0.4c-0.2,0.2-0.3,0.5-0.3,0.8c0,0.2,0,0.4,0.1,0.5c0.1,0.1,0.2,0.3,0.4,0.4c0.2,0.1,0.3,0.2,0.5,0.2&#10;&#9;&#9;c0.2,0,0.4,0,0.6,0.1c0.6,0,1.3-0.2,1.7-0.6c0.4-0.5,0.6-1.1,0.6-1.7V211.2z"/>
	<path class="st1_data-maintenance-9" d="M282.6,201.4c0,0.3-0.1,0.5-0.2,0.8c-0.1,0.2-0.3,0.5-0.5,0.6c-0.2,0.2-0.4,0.3-0.7,0.4&#10;&#9;&#9;c-0.3,0.1-0.5,0.2-0.8,0.1c-0.6,0-1.1-0.2-1.5-0.6c-0.4-0.4-0.6-0.9-0.6-1.4c0-0.3,0.1-0.5,0.2-0.8c0.1-0.3,0.3-0.5,0.5-0.7&#10;&#9;&#9;c0.2-0.2,0.4-0.3,0.7-0.4c0.3-0.1,0.5-0.2,0.8-0.2c0.3,0,0.6,0.1,0.8,0.2c0.5,0.2,0.9,0.5,1.1,1&#10;&#9;&#9;C282.5,200.8,282.6,201.1,282.6,201.4z M278.6,216.1V205h3.7v11.1L278.6,216.1z"/>
	<path class="st1_data-maintenance-9" d="M292.5,216.1V210c0-0.3,0-0.6-0.1-0.9c0-0.3-0.1-0.5-0.3-0.8c-0.1-0.2-0.3-0.4-0.5-0.5&#10;&#9;&#9;c-0.2-0.1-0.5-0.2-0.8-0.2c-0.3,0-0.6,0.1-0.9,0.2c-0.2,0.1-0.5,0.3-0.6,0.5c-0.2,0.2-0.3,0.5-0.4,0.8c-0.1,0.3-0.1,0.6-0.1,0.9v6&#10;&#9;&#9;h-3.7V205h3.5v1.5h0c0.1-0.3,0.3-0.5,0.5-0.7c0.2-0.2,0.5-0.4,0.8-0.6c0.3-0.2,0.6-0.3,1-0.4c0.4-0.1,0.7-0.2,1.1-0.2&#10;&#9;&#9;c0.7,0,1.3,0.1,1.9,0.4c0.5,0.2,0.9,0.6,1.3,1c0.3,0.4,0.6,0.9,0.7,1.5c0.1,0.5,0.2,1.1,0.2,1.6v6.9L292.5,216.1z"/>
	<path class="st1_data-maintenance-9" d="M302.9,207.7v4.3c0,0.4,0.1,0.8,0.3,1.2c0.3,0.3,0.7,0.4,1.1,0.4c0.2,0,0.4,0,0.6,0c0.2,0,0.3-0.1,0.5-0.1v2.7&#10;&#9;&#9;c-0.3,0.1-0.7,0.2-1,0.2c-0.4,0.1-0.8,0.1-1.2,0.1c-0.6,0-1.3-0.1-1.9-0.3c-0.5-0.2-0.9-0.4-1.2-0.8c-0.3-0.4-0.5-0.8-0.7-1.2&#10;&#9;&#9;c-0.1-0.5-0.2-1.1-0.2-1.6v-4.7h-1.8V205h1.8v-2.9h3.6v2.9h2.6v2.7L302.9,207.7z"/>
	<path class="st1_data-maintenance-9" d="M318.2,210.7v0.4c0,0.1,0,0.3,0,0.4h-8c0,0.3,0.1,0.6,0.3,0.9c0.2,0.3,0.4,0.5,0.6,0.6&#10;&#9;&#9;c0.5,0.4,1.1,0.6,1.8,0.6c0.5,0,1-0.1,1.5-0.3c0.4-0.2,0.7-0.5,1-0.8l2.5,1.6c-0.5,0.8-1.2,1.4-2.1,1.8c-0.9,0.4-2,0.6-3,0.6&#10;&#9;&#9;c-0.8,0-1.6-0.1-2.4-0.4c-0.7-0.2-1.4-0.6-2-1.1c-0.6-0.5-1-1.1-1.3-1.8c-0.3-0.8-0.5-1.6-0.5-2.5c0-0.8,0.1-1.7,0.5-2.5&#10;&#9;&#9;c0.3-0.7,0.7-1.3,1.3-1.9c0.5-0.5,1.2-0.9,1.9-1.2c0.8-0.3,1.6-0.4,2.4-0.4c0.8,0,1.5,0.1,2.2,0.4c0.7,0.3,1.3,0.7,1.8,1.2&#10;&#9;&#9;c0.5,0.5,0.9,1.2,1.1,1.9C318.1,208.9,318.3,209.8,318.2,210.7z M314.9,209.3c0-0.5-0.2-1.1-0.5-1.5c-0.4-0.4-1-0.7-1.6-0.6&#10;&#9;&#9;c-0.3,0-0.7,0-1,0.2c-0.3,0.1-0.6,0.3-0.8,0.5c-0.2,0.2-0.4,0.4-0.5,0.7c-0.1,0.3-0.2,0.5-0.2,0.8H314.9z"/>
	<path class="st1_data-maintenance-9" d="M327.8,216.1V210c0-0.3,0-0.6-0.1-0.9c0-0.3-0.1-0.5-0.2-0.8c-0.1-0.2-0.3-0.4-0.5-0.5&#10;&#9;&#9;c-0.3-0.1-0.5-0.2-0.8-0.2c-0.6,0-1.1,0.2-1.5,0.7c-0.2,0.2-0.3,0.5-0.4,0.8c-0.1,0.3-0.1,0.6-0.1,0.9v6h-3.7V205h3.5v1.5h0&#10;&#9;&#9;c0.1-0.3,0.3-0.5,0.5-0.7c0.2-0.2,0.5-0.4,0.8-0.6c0.3-0.2,0.7-0.3,1-0.4c0.4-0.1,0.7-0.2,1.1-0.2c0.7,0,1.3,0.1,1.9,0.4&#10;&#9;&#9;c0.5,0.2,0.9,0.6,1.3,1c0.3,0.4,0.6,0.9,0.7,1.5c0.1,0.5,0.2,1.1,0.2,1.6v6.9L327.8,216.1z"/>
	<path class="st1_data-maintenance-9" d="M334.1,206.5c0.7-0.6,1.4-1.1,2.3-1.4c0.9-0.3,1.8-0.5,2.7-0.5c0.8,0,1.6,0.1,2.4,0.4c0.6,0.2,1.1,0.6,1.6,1&#10;&#9;&#9;c0.4,0.5,0.7,1.2,0.9,1.8c0.2,0.9,0.3,1.7,0.3,2.6v5.6h-3.4v-1.2h-0.1c-0.3,0.5-0.8,0.9-1.3,1.1c-0.6,0.3-1.2,0.4-1.9,0.4&#10;&#9;&#9;c-0.5,0-0.9-0.1-1.4-0.2c-0.5-0.1-0.9-0.3-1.3-0.6c-0.9-0.6-1.4-1.6-1.4-2.7c0-0.7,0.2-1.4,0.7-1.9c0.5-0.5,1.1-0.9,1.7-1.1&#10;&#9;&#9;c0.7-0.3,1.5-0.5,2.3-0.5c0.8-0.1,1.6-0.1,2.5-0.1V209c0-0.5-0.2-0.9-0.6-1.2c-0.4-0.3-0.9-0.4-1.4-0.4c-0.5,0-1,0.1-1.5,0.3&#10;&#9;&#9;c-0.5,0.2-0.9,0.5-1.2,0.8L334.1,206.5z M340.8,211.2h-0.5c-0.4,0-0.8,0-1.2,0.1c-0.4,0-0.7,0.1-1.1,0.2c-0.3,0.1-0.6,0.2-0.8,0.4&#10;&#9;&#9;c-0.2,0.2-0.3,0.5-0.3,0.8c0,0.2,0,0.4,0.1,0.5c0.1,0.1,0.2,0.3,0.4,0.4c0.2,0.1,0.3,0.2,0.5,0.2c0.2,0,0.4,0,0.6,0.1&#10;&#9;&#9;c0.6,0,1.2-0.2,1.7-0.6c0.4-0.5,0.6-1,0.6-1.7V211.2z"/>
	<path class="st1_data-maintenance-9" d="M354.2,216.1V210c0-0.3,0-0.6-0.1-0.9c0-0.3-0.1-0.5-0.2-0.8c-0.1-0.2-0.3-0.4-0.5-0.5&#10;&#9;&#9;c-0.2-0.1-0.5-0.2-0.8-0.2c-0.6,0-1.1,0.2-1.5,0.7c-0.2,0.2-0.3,0.5-0.4,0.8c-0.1,0.3-0.1,0.6-0.1,0.9v6h-3.7V205h3.5v1.5h0&#10;&#9;&#9;c0.1-0.3,0.3-0.5,0.5-0.7c0.2-0.2,0.5-0.4,0.8-0.6c0.3-0.2,0.6-0.3,1-0.4c0.4-0.1,0.7-0.2,1.1-0.2c0.7,0,1.3,0.1,1.9,0.4&#10;&#9;&#9;c0.5,0.2,0.9,0.6,1.3,1c0.3,0.4,0.6,0.9,0.7,1.5c0.1,0.5,0.2,1.1,0.2,1.6v6.9L354.2,216.1z"/>
	<path class="st1_data-maintenance-9" d="M368.3,208.6c-0.2-0.3-0.5-0.5-0.9-0.6c-0.3-0.2-0.7-0.2-1.1-0.2c-0.4,0-0.7,0.1-1,0.2&#10;&#9;&#9;c-0.3,0.2-0.6,0.4-0.8,0.6c-0.5,0.6-0.7,1.3-0.7,2c0,0.4,0.1,0.7,0.2,1.1c0.1,0.3,0.3,0.6,0.5,0.9c0.5,0.5,1.2,0.8,1.9,0.8&#10;&#9;&#9;c0.4,0,0.8-0.1,1.1-0.2c0.3-0.1,0.6-0.3,0.9-0.6l2,2.5c-0.5,0.5-1.1,0.8-1.8,1c-0.7,0.3-1.5,0.4-2.3,0.4c-0.8,0-1.7-0.1-2.5-0.4&#10;&#9;&#9;c-0.7-0.2-1.4-0.6-2-1.2c-0.6-0.5-1-1.2-1.3-1.9c-0.6-1.6-0.6-3.3,0-4.9c0.3-0.7,0.8-1.3,1.3-1.9c0.6-0.5,1.3-0.9,2-1.2&#10;&#9;&#9;c0.8-0.3,1.6-0.4,2.4-0.4c0.4,0,0.8,0,1.2,0.1c0.4,0.1,0.8,0.2,1.1,0.3c0.4,0.1,0.7,0.3,1,0.5c0.3,0.2,0.6,0.4,0.8,0.6L368.3,208.6&#10;&#9;&#9;z"/>
	<path class="st1_data-maintenance-9" d="M382.9,210.7v0.4c0,0.1,0,0.3,0,0.4h-8c0,0.3,0.1,0.6,0.3,0.9c0.2,0.3,0.4,0.5,0.6,0.6&#10;&#9;&#9;c0.2,0.2,0.5,0.3,0.8,0.4c0.3,0.1,0.6,0.2,1,0.1c0.5,0,1-0.1,1.5-0.3c0.4-0.2,0.7-0.5,1-0.8l2.5,1.6c-0.5,0.8-1.2,1.4-2.1,1.8&#10;&#9;&#9;c-0.9,0.4-2,0.6-3,0.6c-0.8,0-1.6-0.1-2.4-0.4c-0.7-0.2-1.4-0.6-2-1.1c-0.6-0.5-1-1.1-1.3-1.8c-0.3-0.8-0.5-1.6-0.5-2.5&#10;&#9;&#9;c0-0.8,0.1-1.7,0.5-2.5c0.3-0.7,0.7-1.3,1.3-1.9c0.5-0.5,1.2-0.9,1.9-1.2c0.8-0.3,1.6-0.4,2.4-0.4c0.8,0,1.5,0.1,2.3,0.4&#10;&#9;&#9;c0.7,0.3,1.3,0.7,1.8,1.2c0.5,0.5,0.9,1.2,1.1,1.9C382.8,209,382.9,209.8,382.9,210.7z M379.5,209.3c0-0.5-0.2-1.1-0.5-1.5&#10;&#9;&#9;c-0.4-0.4-1-0.7-1.6-0.6c-0.3,0-0.7,0-1,0.2c-0.3,0.1-0.5,0.3-0.8,0.5c-0.2,0.2-0.4,0.4-0.5,0.7c-0.1,0.2-0.2,0.5-0.2,0.8H379.5z"/>
</g>
<g id="setting_data-maintenance-9">
	<path class="st5_data-maintenance-9" d="M202.7,299.9v62.5c0,6.9-4.5,12.6-10,12.6h-74.6c-5.5,0-10-5.6-10-12.6v-62.5c0-6.9,4.5-12.6,10-12.6h74.6&#10;&#9;&#9;C198.2,287.3,202.7,293,202.7,299.9z"/>
	<path class="st1_data-maintenance-9" d="M192.6,376.8h-74.6c-6.5,0-11.9-6.5-11.9-14.4v-62.5c0-8,5.3-14.4,11.9-14.4h74.6c6.6,0,11.9,6.5,11.9,14.4&#10;&#9;&#9;v62.5C204.5,370.4,199.2,376.8,192.6,376.8z M118.1,289.2c-4.5,0-8.2,4.8-8.2,10.7v62.5c0,5.9,3.7,10.7,8.2,10.7h74.6&#10;&#9;&#9;c4.5,0,8.2-4.8,8.2-10.7v-62.5c0-5.9-3.7-10.7-8.2-10.7H118.1z"/>
	<polygon class="st0_data-maintenance-9 targetColor" points="146.8,322.4 135.3,333.9 125,319.5 132.4,312.1 &#9;" style="fill: rgb(12, 100, 169);"/>
	<path class="st1_data-maintenance-9" d="M135.3,335.7h-0.2c-0.5,0-1-0.3-1.4-0.8l-10.3-14.4c-0.5-0.7-0.4-1.8,0.2-2.4l7.4-7.4c0.6-0.6,1.7-0.7,2.4-0.2&#10;&#9;&#9;l14.4,10.3c0.4,0.3,0.7,0.8,0.8,1.4c0,0.5-0.1,1.1-0.5,1.5l-11.5,11.5C136.3,335.5,135.8,335.7,135.3,335.7z M127.5,319.7l8.1,11.3&#10;&#9;&#9;l8.4-8.4l-11.3-8.1L127.5,319.7z"/>
	<polygon class="st0_data-maintenance-9 targetColor" points="146.8,322.4 135.3,333.9 142.6,334.2 147.1,329.8 &#9;" style="fill: rgb(12, 100, 169);"/>
	<path class="st1_data-maintenance-9" d="M142.6,336L142.6,336l-7.4-0.3c-0.7,0-1.4-0.5-1.6-1.2c-0.3-0.7-0.1-1.5,0.4-2l11.5-11.5&#10;&#9;&#9;c0.5-0.5,1.3-0.7,2-0.4c0.7,0.3,1.1,0.9,1.2,1.6l0.3,7.3c0,0.5-0.2,1-0.5,1.4l-4.4,4.5C143.6,335.8,143.2,336,142.6,336z&#10;&#9;&#9; M139.6,332.2l2.3,0.1l3.3-3.3l-0.1-2.3L139.6,332.2z"/>
	<polygon class="st0_data-maintenance-9 targetColor" points="160.5,342.8 155.6,347.6 142.6,334.2 147,329.8 &#9;" style="fill: rgb(12, 100, 169);"/>
	<path class="st1_data-maintenance-9" d="M155.6,349.5L155.6,349.5c-0.5,0-1-0.2-1.3-0.6l-13-13.5c-0.7-0.7-0.7-1.9,0-2.6l4.4-4.4&#10;&#9;&#9;c0.7-0.7,1.9-0.7,2.6,0l13.4,13c0.4,0.3,0.6,0.8,0.6,1.3c0,0.5-0.2,1-0.6,1.3l-4.9,4.9C156.5,349.3,156.1,349.5,155.6,349.5z&#10;&#9;&#9; M145.3,334.2l10.4,10.8l2.2-2.2l-10.8-10.4L145.3,334.2z"/>
	<path class="st0_data-maintenance-9 targetColor" d="M153.7,347.7l6.8-6.8c0.7-0.7,1.9-0.7,2.6,0l14.9,14.9c0.7,0.7,0.7,1.9,0,2.6l-6.8,6.8c-0.7,0.7-1.9,0.7-2.6,0&#10;&#9;&#9;l-14.9-14.9C153,349.6,153,348.5,153.7,347.7z" style="fill: rgb(12, 100, 169);"/>
	<path class="st1_data-maintenance-9" d="M169.9,367c-1.4,0-2.8-0.6-3.8-1.6l-12.6-12.6c-2.1-2.1-2.1-5.4,0-7.5l4.6-4.6c2.1-2.1,5.4-2.1,7.5,0&#10;&#9;&#9;l12.6,12.6c2.1,2.1,2.1,5.4,0,7.5c0,0,0,0,0,0l0,0l-4.6,4.6C172.7,366.4,171.3,367,169.9,367z M161.9,342.9c-0.4,0-0.8,0.2-1.1,0.5&#10;&#9;&#9;l-4.6,4.6c-0.6,0.6-0.6,1.6,0,2.2c0,0,0,0,0,0l12.6,12.6c0.6,0.6,1.6,0.6,2.2,0l4.6-4.6l0,0c0.3-0.3,0.5-0.7,0.5-1.1&#10;&#9;&#9;c0-0.4-0.2-0.8-0.5-1.1L163,343.4C162.7,343.1,162.3,342.9,161.9,342.9L161.9,342.9z"/>
	<line class="st6_data-maintenance-9" x1="159" y1="342.5" x2="176.5" y2="359.9"/>
	<path class="st1_data-maintenance-9" d="M176.5,361.8c-0.5,0-1-0.2-1.3-0.5l-17.5-17.5c-0.7-0.8-0.6-1.9,0.2-2.6c0.7-0.6,1.8-0.6,2.5,0l17.5,17.5&#10;&#9;&#9;c0.7,0.7,0.7,1.9,0,2.6C177.4,361.6,177,361.8,176.5,361.8L176.5,361.8z"/>
	<line class="st6_data-maintenance-9" x1="155.6" y1="345.8" x2="173.1" y2="363.3"/>
	<path class="st1_data-maintenance-9" d="M173.1,365.2c-0.5,0-1-0.2-1.3-0.5l-17.5-17.5c-0.7-0.7-0.7-1.9,0-2.6c0.7-0.7,1.9-0.7,2.6,0l17.5,17.5&#10;&#9;&#9;c0.7,0.7,0.7,1.9,0,2.6C174.1,365,173.6,365.2,173.1,365.2z"/>
	<path class="st0_data-maintenance-9 targetColor" d="M181.5,333.4c4.2-4.2,5.4-10.6,2.9-16.1l-7.5,7.5l-6.1-0.5l-1.4-7l7.3-7.2c-7.3-2.9-15.6,0.8-18.5,8.1&#10;&#9;&#9;c-1,2.5-1.2,5.3-0.7,7.9l-24.8,25.2c-2.8,3.4-2.4,8.4,1,11.3c3,2.5,7.3,2.5,10.3,0l24.8-25.1C173.4,338.2,178.2,336.7,181.5,333.4z&#10;&#9;&#9; M136.7,358.5c-1.4-1.4-1.3-3.6,0.1-4.9c1.4-1.4,3.6-1.3,4.9,0.1c1.3,1.4,1.3,3.5,0,4.9C140.3,359.9,138.1,359.9,136.7,358.5&#10;&#9;&#9;C136.7,358.5,136.7,358.5,136.7,358.5L136.7,358.5z" style="fill: rgb(12, 100, 169);"/>
	<path class="st1_data-maintenance-9" d="M138.3,366.6c-5.4,0-9.8-4.4-9.8-9.8c0-2.6,1-5.1,2.9-6.9l24.1-24.5c-1.2-8.8,5.1-16.9,13.9-18.1&#10;&#9;&#9;c2.7-0.4,5.4,0,7.9,1c0.9,0.4,1.4,1.5,1,2.4c-0.1,0.2-0.2,0.4-0.4,0.6l-6.6,6.5l1,4.6l3.8,0.3l6.9-6.9c0.7-0.7,1.9-0.7,2.6,0&#10;&#9;&#9;c0.2,0.2,0.3,0.3,0.4,0.5c2.8,6.1,1.5,13.4-3.2,18.2l0,0c-3.5,3.5-8.5,5.2-13.5,4.6l-24.1,24.5C143.5,365.6,141,366.6,138.3,366.6z&#10;&#9;&#9; M171.5,310.9c-6.8,0-12.4,5.5-12.4,12.4c0,0.8,0.1,1.6,0.2,2.4c0.1,0.6-0.1,1.2-0.5,1.7L134,352.5c-2.4,2.4-2.4,6.2,0,8.6&#10;&#9;&#9;c2.4,2.3,6.2,2.3,8.6,0l24.8-25.1c0.4-0.5,1.1-0.6,1.7-0.5c6.7,1.3,13.2-3.1,14.5-9.8c0.3-1.6,0.3-3.3,0-5l-5.4,5.4&#10;&#9;&#9;c-0.4,0.4-0.9,0.6-1.5,0.5l-6.1-0.5c-0.8-0.1-1.5-0.7-1.7-1.5l-1.4-7c-0.1-0.6,0.1-1.3,0.5-1.7l5-5&#10;&#9;&#9;C172.5,310.9,172,310.9,171.5,310.9L171.5,310.9z M181.5,333.4L181.5,333.4z M139.1,361.4c-1.4,0-2.8-0.6-3.8-1.6l0,0&#10;&#9;&#9;c-2.1-2.1-2.1-5.5,0-7.6c2.1-2.1,5.5-2.1,7.6,0s2.1,5.5,0,7.6C141.9,360.8,140.6,361.4,139.1,361.4z M139.1,354.4&#10;&#9;&#9;c-0.9,0-1.6,0.7-1.6,1.6c0,0.4,0.2,0.9,0.5,1.2l0,0c0.6,0.6,1.7,0.6,2.3,0c0.6-0.6,0.6-1.7,0-2.3c0,0,0,0,0,0&#10;&#9;&#9;C140,354.6,139.6,354.4,139.1,354.4L139.1,354.4z"/>
	<path class="st1_data-maintenance-9" d="M202.7,301.7h-94.6c-1,0.1-1.9-0.7-2-1.7c-0.1-1,0.7-1.9,1.7-2c0.1,0,0.2,0,0.3,0h94.6c1,0.1,1.8,1,1.7,2&#10;&#9;&#9;C204.3,300.9,203.6,301.7,202.7,301.7z"/>
</g>
<g id="file_data-maintenance-9">
	<polygon class="st2_data-maintenance-9" points="315.9,348.6 388.7,348.6 388.7,274.6 373.8,259 315.9,259 &#9;"/>
	<path class="st1_data-maintenance-9" d="M388.7,350.5h-72.8c-1,0-1.9-0.8-1.9-1.8c0,0,0,0,0,0V259c0-1,0.8-1.9,1.9-1.9l0,0h57.9c0.5,0,1,0.2,1.4,0.6&#10;&#9;&#9;l14.9,15.6c0.3,0.3,0.5,0.8,0.5,1.3v74C390.6,349.7,389.8,350.5,388.7,350.5C388.8,350.5,388.8,350.5,388.7,350.5z M317.8,346.8&#10;&#9;&#9;h69.1v-71.4L373,260.9h-55.2V346.8z"/>
	<polygon class="st7_data-maintenance-9" points="388.7,274.6 373.6,274.6 373.6,259 &#9;"/>
	<path class="st1_data-maintenance-9" d="M388.7,276.5h-15.2c-1,0-1.9-0.8-1.9-1.9V259c0-1,0.8-1.9,1.9-1.9c0.5,0,1,0.2,1.3,0.6l15.1,15.6&#10;&#9;&#9;c0.7,0.7,0.7,1.9,0,2.6C389.7,276.3,389.2,276.5,388.7,276.5L388.7,276.5z M375.4,272.8h8.9l-8.9-9.2V272.8z"/>
	<path class="st8_data-maintenance-9" d="M376.4,292.4h-45.3c-1,0-1.9-0.8-1.9-1.9c0-1,0.8-1.9,1.9-1.9h45.3c1,0,1.9,0.8,1.9,1.9&#10;&#9;&#9;C378.3,291.5,377.4,292.4,376.4,292.4z"/>
	<path class="st8_data-maintenance-9" d="M376.4,309.8h-45.3c-1,0.1-1.9-0.7-2-1.7c-0.1-1,0.7-1.9,1.7-2c0.1,0,0.2,0,0.3,0h45.3c1,0.1,1.8,1,1.7,2&#10;&#9;&#9;C378.1,309,377.3,309.7,376.4,309.8z"/>
	<path class="st8_data-maintenance-9" d="M361.4,327.1h-30.3c-1,0-1.9-0.8-1.9-1.9c0-1,0.8-1.9,1.9-1.9h30.3c1,0,1.9,0.8,1.9,1.9&#10;&#9;&#9;C363.3,326.3,362.4,327.1,361.4,327.1L361.4,327.1z"/>
</g>
</svg>