<svg version="1.1" id="Layer_1" xmlns="http://www.w3.org/2000/svg" xmlns:xlink="http://www.w3.org/1999/xlink" x="0px" y="0px" viewBox="0 0 500 500" style="width: 151px;" xml:space="preserve" data-imageid="data-storage-1-3" imageName="Data Storage 1" class="illustrations_image">
<style type="text/css">
	.st0_data-storage-1-3{fill:#FFBC0E;}
	.st1_data-storage-1-3{fill:#093F68;}
	.st2_data-storage-1-3{fill:#DFEAEF;}
	.st3_data-storage-1-3{fill:#68E1FD;}
</style>
<g id="file-3_data-storage-1-3">
	<path class="st0_data-storage-1-3" d="M402.9,134.5l-3.3,6.4h-22.3c-2.6,0-4.8,2.1-4.8,4.8l0,0v35.4c0,2.6,2.1,4.8,4.8,4.8h58.2&#10;&#9;&#9;c2.6,0,4.8-2.1,4.8-4.8l0,0v-44.9c0-2.6-2.1-4.8-4.8-4.8h-27.5C405.8,131.4,403.9,132.6,402.9,134.5z"/>
	<path class="st1_data-storage-1-3" d="M435.5,187.7h-58.2c-3.6,0-6.6-3-6.6-6.6v-35.4c0-3.7,3-6.6,6.6-6.6h21.1l2.8-5.4l0,0c1.3-2.5,3.9-4.1,6.7-4.1&#10;&#9;&#9;h27.5c3.6,0,6.6,3,6.6,6.6v44.9C442.1,184.7,439.1,187.7,435.5,187.7z M377.3,142.7c-1.6,0-2.9,1.3-2.9,2.9v35.4&#10;&#9;&#9;c0,1.6,1.3,2.9,2.9,2.9h58.2c1.6,0,2.9-1.3,2.9-2.9v-44.9c0-1.6-1.3-2.9-2.9-2.9h-27.5c-1.4,0-2.8,0.8-3.4,2.1l-3.3,6.4&#10;&#9;&#9;c-0.3,0.6-1,1-1.6,1L377.3,142.7z"/>
	<path class="st1_data-storage-1-3" d="M397.6,153.1h-14.4c-1,0-1.9-0.8-1.9-1.9s0.8-1.9,1.9-1.9h14.4c1,0,1.9,0.8,1.9,1.9S398.6,153.1,397.6,153.1z"/>
</g>
<g id="file-2_data-storage-1-3">
	<path class="st0_data-storage-1-3" d="M402.9,225.9l-3.3,6.4h-22.3c-2.6,0-4.8,2.1-4.8,4.8l0,0v35.4c0,2.6,2.1,4.8,4.8,4.8h58.2&#10;&#9;&#9;c2.6,0,4.8-2.1,4.8-4.8v-44.9c0-2.6-2.1-4.8-4.8-4.8l0,0h-27.5C405.8,222.8,403.9,224,402.9,225.9z"/>
	<path class="st1_data-storage-1-3" d="M435.5,279.1h-58.2c-3.6,0-6.6-3-6.6-6.6v-35.4c0-3.7,3-6.6,6.6-6.6h21.1l2.8-5.4l0,0c1.3-2.5,3.9-4.1,6.7-4.1&#10;&#9;&#9;h27.5c3.6,0,6.6,3,6.6,6.6v44.9C442.1,276.1,439.1,279.1,435.5,279.1z M377.3,234.2c-1.6,0-2.9,1.3-2.9,2.9v35.4&#10;&#9;&#9;c0,1.6,1.3,2.9,2.9,2.9h58.2c1.6,0,2.9-1.3,2.9-2.9v-44.9c0-1.6-1.3-2.9-2.9-2.9h-27.5c-1.4,0-2.8,0.8-3.4,2.1l-3.3,6.4&#10;&#9;&#9;c-0.3,0.6-1,1-1.6,1L377.3,234.2z"/>
	<path class="st1_data-storage-1-3" d="M397.6,244.5h-14.4c-1,0-1.9-0.8-1.9-1.9s0.8-1.9,1.9-1.9h14.4c1,0,1.9,0.8,1.9,1.9S398.6,244.5,397.6,244.5z"/>
</g>
<g id="file-1_data-storage-1-3">
	<path class="st0_data-storage-1-3" d="M402.9,317.3l-3.3,6.4h-22.3c-2.6,0-4.8,2.1-4.8,4.8c0,0,0,0,0,0v35.4c0,2.6,2.1,4.8,4.8,4.8h58.2&#10;&#9;&#9;c2.6,0,4.8-2.1,4.8-4.8V319c0-2.6-2.1-4.8-4.8-4.8l0,0h-27.5C405.8,314.2,403.9,315.4,402.9,317.3z"/>
	<path class="st1_data-storage-1-3" d="M435.5,370.5h-58.2c-3.6,0-6.6-3-6.6-6.6v-35.4c0-3.7,3-6.6,6.6-6.6h21.1l2.8-5.4l0,0c1.3-2.5,3.9-4.1,6.7-4.1&#10;&#9;&#9;h27.5c3.6,0,6.6,3,6.6,6.6v44.9C442.1,367.5,439.1,370.5,435.5,370.5z M377.3,325.6c-1.6,0-2.9,1.3-2.9,2.9v35.4&#10;&#9;&#9;c0,1.6,1.3,2.9,2.9,2.9h58.2c1.6,0,2.9-1.3,2.9-2.9V319c0-1.6-1.3-2.9-2.9-2.9h-27.5c-1.4,0-2.8,0.8-3.4,2.1l-3.3,6.4&#10;&#9;&#9;c-0.3,0.6-1,1-1.6,1L377.3,325.6z"/>
	<path class="st1_data-storage-1-3" d="M397.6,335.9h-14.4c-1,0-1.9-0.8-1.9-1.9c0-1,0.8-1.9,1.9-1.9h14.4c1,0,1.9,0.8,1.9,1.9&#10;&#9;&#9;C399.5,335.1,398.6,335.9,397.6,335.9z"/>
</g>
<g id="storage_data-storage-1-3">
	<path class="st2_data-storage-1-3" d="M360.6,251.9H223c-1,0-1.9-0.8-1.9-1.9s0.8-1.9,1.9-1.9h137.6c1,0,1.9,0.8,1.9,1.9S361.6,251.9,360.6,251.9z"/>
	<path class="st2_data-storage-1-3" d="M360.6,343.3h-80.4c-1,0-1.9-0.8-1.9-1.8c0,0,0,0,0,0V158.6c0-1,0.8-1.9,1.8-1.9c0,0,0,0,0,0h80.4&#10;&#9;&#9;c1,0,1.9,0.8,1.9,1.9s-0.8,1.9-1.9,1.9H282v179.1h78.5c1,0,1.9,0.8,1.9,1.9C362.4,342.4,361.6,343.3,360.6,343.3L360.6,343.3z"/>
	<g id="storage-2_data-storage-1-3">
		<rect x="68.3" y="151.3" class="st1_data-storage-1-3" width="138.7" height="168.8"/>
		<path class="st1_data-storage-1-3" d="M207,321.9H68.3c-1,0-1.9-0.8-1.9-1.9c0,0,0,0,0,0V151.3c0-1,0.8-1.9,1.9-1.9l0,0H207c1,0,1.9,0.8,1.9,1.9&#10;&#9;&#9;&#9;l0,0V320C208.9,321,208.1,321.9,207,321.9C207,321.9,207,321.9,207,321.9z M70.2,318.2h135v-165h-135V318.2z"/>
		<path class="st3_data-storage-1-3 targetColor" d="M63,143.5h147.8c1.8,0,3.2,1.4,3.2,3.2v40.8c0,1.8-1.4,3.2-3.2,3.2H63c-1.8,0-3.2-1.4-3.2-3.2v-40.8&#10;&#9;&#9;&#9;C59.8,144.9,61.2,143.5,63,143.5z" style="fill: rgb(12, 100, 169);"/>
		<path class="st1_data-storage-1-3" d="M208.1,192.5H65.7c-4.3,0-7.8-3.5-7.8-7.8v-35.3c0-4.3,3.5-7.8,7.8-7.8h142.4c4.3,0,7.8,3.5,7.8,7.8v35.3&#10;&#9;&#9;&#9;C215.9,189,212.4,192.5,208.1,192.5z M65.7,145.4c-2.2,0-4.1,1.8-4.1,4.1v35.3c0,2.2,1.8,4.1,4.1,4.1h142.4c2.2,0,4.1-1.8,4.1-4.1&#10;&#9;&#9;&#9;v0v-35.3c0-2.2-1.8-4.1-4.1-4.1h0L65.7,145.4z"/>
		<circle class="st1_data-storage-1-3" cx="189" cy="167.1" r="6.6"/>
		<path class="st1_data-storage-1-3" d="M136.9,169H79.7c-1,0-1.9-0.8-1.9-1.9s0.8-1.9,1.9-1.9h57.2c1,0,1.9,0.8,1.9,1.9S137.9,169,136.9,169z"/>
		<path class="st3_data-storage-1-3 targetColor" d="M63,198.8h147.8c1.8,0,3.2,1.4,3.2,3.2v40.8c0,1.8-1.4,3.2-3.2,3.2H63c-1.8,0-3.2-1.4-3.2-3.2V202&#10;&#9;&#9;&#9;C59.8,200.2,61.2,198.8,63,198.8z" style="fill: rgb(12, 100, 169);"/>
		<path class="st1_data-storage-1-3" d="M208.1,247.8H65.7c-4.3,0-7.8-3.5-7.8-7.8v-35.3c0-4.3,3.5-7.8,7.8-7.8h142.4c4.3,0,7.8,3.5,7.8,7.8V240&#10;&#9;&#9;&#9;C215.9,244.3,212.4,247.8,208.1,247.8z M65.7,200.6c-2.2,0-4.1,1.8-4.1,4.1V240c0,2.3,1.8,4.1,4.1,4.1c0,0,0,0,0,0h142.4&#10;&#9;&#9;&#9;c2.2,0,4.1-1.8,4.1-4.1v-35.3c0-2.2-1.8-4.1-4.1-4.1H65.7z"/>
		<circle class="st1_data-storage-1-3" cx="189" cy="222.4" r="6.6"/>
		<path class="st1_data-storage-1-3" d="M136.9,224.2H79.7c-1,0-1.9-0.8-1.9-1.9s0.8-1.9,1.9-1.9h57.2c1,0,1.9,0.8,1.9,1.9S137.9,224.2,136.9,224.2z"/>
		<path class="st3_data-storage-1-3 targetColor" d="M63,254.1h147.8c1.8,0,3.2,1.4,3.2,3.2V298c0,1.8-1.4,3.2-3.2,3.2H63c-1.8,0-3.2-1.4-3.2-3.2v-40.8&#10;&#9;&#9;&#9;C59.8,255.5,61.2,254.1,63,254.1z" style="fill: rgb(12, 100, 169);"/>
		<path class="st1_data-storage-1-3" d="M208.1,303.1H65.7c-4.3,0-7.8-3.5-7.8-7.8V260c0-4.3,3.5-7.8,7.8-7.8h142.4c4.3,0,7.8,3.5,7.8,7.8v35.3&#10;&#9;&#9;&#9;C215.9,299.6,212.4,303.1,208.1,303.1z M65.7,255.9c-2.3,0-4.1,1.8-4.1,4.1l0,0v35.3c0,2.2,1.8,4.1,4.1,4.1h142.4&#10;&#9;&#9;&#9;c2.2,0,4.1-1.8,4.1-4.1V260c0-2.2-1.8-4.1-4.1-4.1H65.7z"/>
		<circle class="st1_data-storage-1-3" cx="189" cy="277.6" r="6.6"/>
		<path class="st1_data-storage-1-3" d="M136.9,279.5H79.7c-1,0-1.9-0.8-1.9-1.9c0-1,0.8-1.9,1.9-1.9h57.2c1,0,1.9,0.8,1.9,1.9&#10;&#9;&#9;&#9;C138.8,278.7,137.9,279.5,136.9,279.5z"/>
		<path class="st3_data-storage-1-3 targetColor" d="M63,309.3h147.8c1.8,0,3.2,1.4,3.2,3.2v40.8c0,1.8-1.4,3.2-3.2,3.2H63c-1.8,0-3.2-1.4-3.2-3.2v-40.8&#10;&#9;&#9;&#9;C59.8,310.8,61.2,309.3,63,309.3z" style="fill: rgb(12, 100, 169);"/>
		<path class="st1_data-storage-1-3" d="M208.1,358.3H65.7c-4.3,0-7.8-3.5-7.8-7.8l0,0v-35.3c0-4.3,3.5-7.8,7.8-7.8h0h142.4c4.3,0,7.8,3.5,7.8,7.8&#10;&#9;&#9;&#9;v35.3C215.9,354.9,212.4,358.3,208.1,358.3z M65.7,311.2c-2.2,0-4.1,1.8-4.1,4.1v35.3c0,2.2,1.8,4.1,4.1,4.1h142.4&#10;&#9;&#9;&#9;c2.2,0,4.1-1.8,4.1-4.1l0,0v-35.3c0-2.2-1.8-4.1-4.1-4.1h0L65.7,311.2z"/>
		<circle class="st1_data-storage-1-3" cx="189" cy="332.9" r="6.6"/>
		<path class="st1_data-storage-1-3" d="M136.9,334.8H79.7c-1,0-1.9-0.8-1.9-1.9c0-1,0.8-1.9,1.9-1.9h57.2c1,0,1.9,0.8,1.9,1.9&#10;&#9;&#9;&#9;C138.8,333.9,137.9,334.8,136.9,334.8z"/>
	</g>
</g>
</svg>