<svg version="1.1" id="Layer_1" xmlns="http://www.w3.org/2000/svg" xmlns:xlink="http://www.w3.org/1999/xlink" x="0px" y="0px" viewBox="0 0 500 500" style="width: 151px;" xml:space="preserve" data-imageid="scrum-board-84" imageName="Scrum Board" class="illustrations_image">
<style type="text/css">
	.st0_scrum-board-84{fill:#68E1FD;}
	.st1_scrum-board-84{fill:#093F68;}
	.st2_scrum-board-84{fill:#FFFFFF;}
	.st3_scrum-board-84{fill:#FFBC0E;}
	.st4_scrum-board-84{fill:#F56132;}
	.st5_scrum-board-84{fill:#70CC40;}
	.st6_scrum-board-84{fill:#DFEAEF;}
</style>
<g id="board_scrum-board-84">
	<path class="st0_scrum-board-84 targetColor" d="M49.9,116.9h400.2c3.1,0,5.6,2.5,5.6,5.6v255c0,3.1-2.5,5.6-5.6,5.6H49.9c-3.1,0-5.6-2.5-5.6-5.6v-255&#10;&#9;&#9;C44.2,119.4,46.8,116.9,49.9,116.9z" style="fill: rgb(12, 100, 169);"/>
	<path class="st1_scrum-board-84" d="M445.5,385H54.5c-6.6,0-12-5.4-12-12V127.1c0-6.6,5.4-12,12-12h391.1c6.6,0,12,5.4,12,12v245.8&#10;&#9;&#9;C457.5,379.6,452.2,385,445.5,385z M54.5,118.7c-4.6,0-8.4,3.8-8.4,8.4v245.8c0,4.6,3.8,8.4,8.4,8.4h391.1c4.6,0,8.4-3.8,8.4-8.4&#10;&#9;&#9;V127.1c0-4.6-3.8-8.4-8.4-8.4H54.5z"/>
	<path class="st2_scrum-board-84" d="M44.2,166.9h411.5l0,0v210.6c0,3.1-2.5,5.6-5.6,5.6h0H49.9c-3.1,0-5.6-2.5-5.6-5.6l0,0V166.9L44.2,166.9z"/>
	<path class="st1_scrum-board-84" d="M445.5,385H54.5c-6.6,0-12-5.4-12-12V166.9c0-1,0.8-1.8,1.8-1.8h411.5c1,0,1.8,0.8,1.8,1.8v206.1&#10;&#9;&#9;C457.6,379.6,452.2,385,445.5,385C445.5,385,445.5,385,445.5,385z M46,168.7v204.3c0,4.6,3.8,8.4,8.4,8.4h391.1&#10;&#9;&#9;c4.6,0,8.4-3.8,8.4-8.4V168.7H46z"/>
	<path class="st1_scrum-board-84" d="M140.9,385c-1,0-1.8-0.8-1.8-1.8V116.9c0-1,0.8-1.8,1.8-1.8c1,0,1.8,0.8,1.8,1.8c0,0,0,0,0,0v266.3&#10;&#9;&#9;C142.7,384.1,141.9,385,140.9,385C140.9,385,140.9,385,140.9,385z"/>
	<path class="st1_scrum-board-84" d="M250,385c-1,0-1.8-0.8-1.8-1.8V116.9c0-1,0.8-1.8,1.8-1.8c1,0,1.8,0.8,1.8,1.8v266.3&#10;&#9;&#9;C251.8,384.1,251,385,250,385C250,385,250,385,250,385z"/>
	<path class="st1_scrum-board-84" d="M359.1,385c-1,0-1.8-0.8-1.8-1.8c0,0,0,0,0,0V116.9c0.1-1,0.9-1.8,1.9-1.7c0.9,0.1,1.6,0.8,1.7,1.7v266.3&#10;&#9;&#9;C361,384.1,360.2,385,359.1,385C359.2,385,359.2,385,359.1,385z"/>
	<path class="st1_scrum-board-84" d="M106.8,142H72.6c-1-0.1-1.8-0.9-1.7-1.9c0.1-0.9,0.8-1.6,1.7-1.7h34.3c1,0.1,1.8,0.9,1.7,1.9&#10;&#9;&#9;C108.5,141.2,107.7,141.9,106.8,142z"/>
	<path class="st1_scrum-board-84" d="M206.4,142h-24.8c-1-0.1-1.8-0.9-1.7-1.9c0.1-0.9,0.8-1.6,1.7-1.7h24.8c1,0.1,1.8,0.9,1.7,1.9&#10;&#9;&#9;C208,141.2,207.3,141.9,206.4,142L206.4,142z"/>
	<path class="st1_scrum-board-84" d="M331.6,142h-53.9c-1,0.1-1.9-0.7-1.9-1.7c-0.1-1,0.7-1.9,1.7-1.9c0.1,0,0.2,0,0.3,0h53.9&#10;&#9;&#9;c1,0.1,1.8,0.9,1.7,1.9C333.2,141.2,332.5,141.9,331.6,142z"/>
	<path class="st1_scrum-board-84" d="M434.8,142h-10.6c-1,0.1-1.9-0.7-1.9-1.7c-0.1-1,0.7-1.9,1.7-1.9c0.1,0,0.2,0,0.3,0h10.6&#10;&#9;&#9;c1-0.1,1.9,0.7,1.9,1.7c0.1,1-0.7,1.9-1.7,1.9C435,142,434.9,142,434.8,142z"/>
	<path class="st1_scrum-board-84" d="M413.8,142h-26.8c-1-0.1-1.8-0.9-1.7-1.9c0.1-0.9,0.8-1.6,1.7-1.7h26.8c1,0.1,1.8,0.9,1.7,1.9&#10;&#9;&#9;C415.4,141.2,414.7,141.9,413.8,142z"/>
</g>
<g id="notes-3_scrum-board-84">
	<rect x="278.1" y="189.3" class="st3_scrum-board-84" width="53" height="49.1"/>
	<path class="st1_scrum-board-84" d="M331.2,240.3h-53c-1,0-1.8-0.8-1.8-1.8c0,0,0,0,0,0v-49.1c0-1,0.8-1.8,1.8-1.8c0,0,0,0,0,0h53&#10;&#9;&#9;c1,0,1.8,0.8,1.8,1.8v49.1C333,239.5,332.2,240.3,331.2,240.3C331.2,240.3,331.2,240.3,331.2,240.3z M280,236.7h49.4v-45.5H280&#10;&#9;&#9;V236.7z"/>
	<rect x="278.1" y="250.4" class="st4_scrum-board-84" width="53" height="49.1"/>
	<path class="st1_scrum-board-84" d="M331.2,301.4h-53c-1,0-1.8-0.8-1.8-1.8c0,0,0,0,0,0v-49.1c0-1,0.8-1.8,1.8-1.8c0,0,0,0,0,0h53&#10;&#9;&#9;c1,0,1.8,0.8,1.8,1.8v49.1C333,300.6,332.2,301.4,331.2,301.4C331.2,301.4,331.2,301.4,331.2,301.4z M280,297.8h49.4v-45.5H280&#10;&#9;&#9;V297.8z"/>
	<rect x="278.1" y="311.5" class="st5_scrum-board-84" width="53" height="49.1"/>
	<path class="st1_scrum-board-84" d="M331.2,362.5h-53c-1,0-1.8-0.8-1.8-1.8c0,0,0,0,0,0v-49.1c0-1,0.8-1.8,1.8-1.8c0,0,0,0,0,0h53&#10;&#9;&#9;c1,0,1.8,0.8,1.8,1.8v49.1C333,361.7,332.2,362.5,331.2,362.5C331.2,362.5,331.2,362.5,331.2,362.5z M280,358.9h49.4v-45.5H280&#10;&#9;&#9;V358.9z"/>
	<path class="st1_scrum-board-84" d="M321.8,204.9h-34.3c-1,0-1.8-0.8-1.8-1.8c0-1,0.8-1.8,1.8-1.8h34.3c1,0,1.8,0.8,1.8,1.8&#10;&#9;&#9;C323.6,204.1,322.8,204.9,321.8,204.9C321.8,204.9,321.8,204.9,321.8,204.9z"/>
	<path class="st1_scrum-board-84" d="M321.8,215.7h-34.3c-1,0-1.8-0.8-1.8-1.8c0-1,0.8-1.8,1.8-1.8h34.3c1,0,1.8,0.8,1.8,1.8&#10;&#9;&#9;C323.6,214.9,322.8,215.7,321.8,215.7C321.8,215.7,321.8,215.7,321.8,215.7z"/>
	<path class="st1_scrum-board-84" d="M314.2,226.6h-26.7c-1-0.1-1.8-0.9-1.7-1.9c0.1-0.9,0.8-1.6,1.7-1.7h26.7c1,0.1,1.8,0.9,1.7,1.9&#10;&#9;&#9;C315.8,225.8,315.1,226.5,314.2,226.6z"/>
	<path class="st1_scrum-board-84" d="M321.8,327.1h-34.3c-1,0-1.8-0.8-1.8-1.8c0-1,0.8-1.8,1.8-1.8h34.3c1,0,1.8,0.8,1.8,1.8&#10;&#9;&#9;C323.6,326.3,322.8,327.1,321.8,327.1C321.8,327.1,321.8,327.1,321.8,327.1z"/>
	<path class="st1_scrum-board-84" d="M321.8,337.9h-34.3c-1,0-1.8-0.8-1.8-1.8c0-1,0.8-1.8,1.8-1.8h34.3c1,0,1.8,0.8,1.8,1.8&#10;&#9;&#9;C323.6,337.1,322.8,337.9,321.8,337.9z"/>
	<path class="st1_scrum-board-84" d="M314.2,348.7h-26.7c-1-0.1-1.8-0.9-1.7-1.9c0.1-0.9,0.8-1.6,1.7-1.7h26.7c1,0.1,1.8,0.9,1.7,1.9&#10;&#9;&#9;C315.8,348,315.1,348.7,314.2,348.7z"/>
	<path class="st1_scrum-board-84" d="M321.8,271.4h-34.3c-1-0.1-1.8-0.9-1.7-1.9c0.1-0.9,0.8-1.6,1.7-1.7h34.3c1,0.1,1.8,0.9,1.7,1.9&#10;&#9;&#9;C323.4,270.6,322.7,271.3,321.8,271.4z"/>
	<path class="st1_scrum-board-84" d="M311.4,282.2h-23.9c-1-0.1-1.8-0.9-1.7-1.9c0.1-0.9,0.8-1.6,1.7-1.7h23.9c1,0.1,1.8,0.9,1.7,1.9&#10;&#9;&#9;C313,281.4,312.3,282.2,311.4,282.2z"/>
</g>
<g id="notes-1_scrum-board-84">
	<rect x="64.8" y="189.3" class="st3_scrum-board-84" width="53" height="49.1"/>
	<path class="st1_scrum-board-84" d="M117.8,240.3h-53c-1,0-1.8-0.8-1.8-1.8c0,0,0,0,0,0v-49.1c0-1,0.8-1.8,1.8-1.8h53c1,0,1.8,0.8,1.8,1.8&#10;&#9;&#9;c0,0,0,0,0,0v49.1C119.6,239.5,118.8,240.3,117.8,240.3C117.8,240.3,117.8,240.3,117.8,240.3z M66.6,236.7H116v-45.5H66.6V236.7z"/>
	<path class="st1_scrum-board-84" d="M108.6,203.4H74.3c-1,0.1-1.9-0.7-1.9-1.7s0.7-1.9,1.7-1.9c0.1,0,0.2,0,0.3,0h34.3c1,0.1,1.8,0.9,1.7,1.9&#10;&#9;&#9;C110.2,202.7,109.5,203.4,108.6,203.4z"/>
	<path class="st1_scrum-board-84" d="M108.6,214.3H74.3c-1,0.1-1.9-0.7-1.9-1.7s0.7-1.9,1.7-1.9c0.1,0,0.2,0,0.3,0h34.3c1,0.1,1.8,0.9,1.7,1.9&#10;&#9;&#9;C110.2,213.5,109.5,214.2,108.6,214.3z"/>
	<path class="st1_scrum-board-84" d="M101,225.1H74.3c-1,0-1.8-0.8-1.8-1.8c0-1,0.8-1.8,1.8-1.8c0,0,0,0,0,0H101c1,0,1.8,0.8,1.8,1.8&#10;&#9;&#9;C102.8,224.3,102,225.1,101,225.1C101,225.1,101,225.1,101,225.1z"/>
	<path class="st6_scrum-board-84" d="M117.8,271.4H68.5c-1,0.1-1.9-0.7-1.9-1.7c-0.1-1,0.7-1.9,1.7-1.9c0.1,0,0.2,0,0.3,0h49.4&#10;&#9;&#9;c1-0.1,1.9,0.7,1.9,1.7c0.1,1-0.7,1.9-1.7,1.9C118,271.4,117.9,271.4,117.8,271.4z"/>
	<path class="st6_scrum-board-84" d="M117.8,287.6H68.5c-1,0.1-1.9-0.7-1.9-1.7c-0.1-1,0.7-1.9,1.7-1.9c0.1,0,0.2,0,0.3,0h49.4&#10;&#9;&#9;c1-0.1,1.9,0.7,1.9,1.7c0.1,1-0.7,1.9-1.7,1.9C118,287.7,117.9,287.7,117.8,287.6z"/>
	<path class="st6_scrum-board-84" d="M101,303.9H68.5c-1,0-1.8-0.8-1.8-1.8c0-1,0.8-1.8,1.8-1.8c0,0,0,0,0,0H101c1,0,1.8,0.8,1.8,1.8&#10;&#9;&#9;C102.8,303.1,102,303.9,101,303.9z"/>
</g>
<g id="notes-4_scrum-board-84">
	<rect x="380.5" y="189.3" class="st5_scrum-board-84" width="53" height="49.1"/>
	<path class="st1_scrum-board-84" d="M433.5,240.3h-53c-1,0-1.8-0.8-1.8-1.8c0,0,0,0,0,0v-49.1c0-1,0.8-1.8,1.8-1.8c0,0,0,0,0,0h53&#10;&#9;&#9;c1,0,1.8,0.8,1.8,1.8v49.1C435.4,239.5,434.5,240.3,433.5,240.3C433.5,240.3,433.5,240.3,433.5,240.3z M382.3,236.7h49.4v-45.5&#10;&#9;&#9;h-49.4V236.7z"/>
	<path class="st1_scrum-board-84" d="M424.2,210.3h-34.3c-1-0.1-1.8-0.9-1.7-1.9c0.1-0.9,0.8-1.6,1.7-1.7h34.3c1,0.1,1.8,0.9,1.7,1.9&#10;&#9;&#9;C425.8,209.5,425.1,210.2,424.2,210.3z"/>
	<path class="st1_scrum-board-84" d="M413.8,221.1h-23.9c-1-0.1-1.8-0.9-1.7-1.9c0.1-0.9,0.8-1.6,1.7-1.7h23.9c1,0.1,1.8,0.9,1.7,1.9&#10;&#9;&#9;C415.4,220.4,414.7,221.1,413.8,221.1z"/>
	<path class="st6_scrum-board-84" d="M417,362.5h-31c-1-0.1-1.8-0.9-1.7-1.9c0.1-0.9,0.8-1.6,1.7-1.7h31c1,0.1,1.8,0.9,1.7,1.9&#10;&#9;&#9;C418.6,361.7,417.9,362.4,417,362.5z"/>
	<path class="st6_scrum-board-84" d="M433.5,345H386c-1,0-1.8-0.8-1.8-1.8c0-1,0.8-1.8,1.8-1.8h47.6c1,0,1.8,0.8,1.8,1.8&#10;&#9;&#9;C435.4,344.2,434.6,345,433.5,345C433.6,345,433.6,345,433.5,345L433.5,345z"/>
</g>
<g id="notes-2_scrum-board-84">
	<rect x="170.4" y="189.3" class="st3_scrum-board-84" width="53" height="49.1"/>
	<path class="st1_scrum-board-84" d="M223.4,240.3h-53c-1,0-1.8-0.8-1.8-1.8c0,0,0,0,0,0v-49.1c0-1,0.8-1.8,1.8-1.8h53c1,0,1.8,0.8,1.8,1.8&#10;&#9;&#9;c0,0,0,0,0,0v49.1C225.2,239.5,224.4,240.3,223.4,240.3C223.4,240.3,223.4,240.3,223.4,240.3z M172.2,236.7h49.4v-45.5h-49.4V236.7&#10;&#9;&#9;z"/>
	<rect x="170.4" y="250.4" class="st4_scrum-board-84" width="53" height="49.1"/>
	<path class="st1_scrum-board-84" d="M223.4,301.4h-53c-1,0-1.8-0.8-1.8-1.8c0,0,0,0,0,0v-49.1c0-1,0.8-1.8,1.8-1.8h53c1,0,1.8,0.8,1.8,1.8&#10;&#9;&#9;c0,0,0,0,0,0v49.1C225.2,300.6,224.4,301.4,223.4,301.4C223.4,301.4,223.4,301.4,223.4,301.4z M172.2,297.8h49.4v-45.5h-49.4V297.8&#10;&#9;&#9;z"/>
	<path class="st1_scrum-board-84" d="M214,266h-34.3c-1,0-1.8-0.8-1.8-1.8c0-1,0.8-1.8,1.8-1.8H214c1,0,1.8,0.8,1.8,1.8&#10;&#9;&#9;C215.8,265.2,215,266,214,266z"/>
	<path class="st1_scrum-board-84" d="M214,276.8h-34.3c-1,0-1.8-0.8-1.8-1.8c0-1,0.8-1.8,1.8-1.8H214c1,0,1.8,0.8,1.8,1.8&#10;&#9;&#9;C215.8,276,215,276.8,214,276.8C214,276.8,214,276.8,214,276.8z"/>
	<path class="st1_scrum-board-84" d="M206.4,287.6h-26.7c-1-0.1-1.8-0.9-1.7-1.9c0.1-0.9,0.8-1.6,1.7-1.7h26.7c1,0.1,1.8,0.9,1.7,1.9&#10;&#9;&#9;C208,286.9,207.3,287.6,206.4,287.6L206.4,287.6z"/>
	<path class="st1_scrum-board-84" d="M214,210.3h-34.3c-1-0.1-1.8-0.9-1.7-1.9c0.1-0.9,0.8-1.6,1.7-1.7H214c1,0.1,1.8,0.9,1.7,1.9&#10;&#9;&#9;C215.6,209.5,214.9,210.2,214,210.3z"/>
	<path class="st1_scrum-board-84" d="M203.6,221.1h-23.9c-1-0.1-1.8-0.9-1.7-1.9c0.1-0.9,0.8-1.6,1.7-1.7h23.9c1,0.1,1.8,0.9,1.7,1.9&#10;&#9;&#9;C205.2,220.4,204.5,221.1,203.6,221.1z"/>
	<path class="st6_scrum-board-84" d="M220.4,323.1h-43.3c-1-0.1-1.8-0.9-1.7-1.9c0.1-0.9,0.8-1.6,1.7-1.7h43.3c1,0.1,1.8,0.9,1.7,1.9&#10;&#9;&#9;C222,322.3,221.3,323,220.4,323.1L220.4,323.1z"/>
</g>
</svg>