<svg id="_0070_notes" data-name="0070_notes" xmlns="http://www.w3.org/2000/svg" viewBox="0 0 500 500" data-imageid="notes-25" imageName="Notes" class="illustrations_image" style="width: 151px;"><defs><style>.cls-1_notes-25{fill:#68e1fd;}.cls-2_notes-25{fill:#231f20;}.cls-3_notes-25{fill:#fff;}.cls-4_notes-25{fill:#d1d3d4;}</style></defs><g id="note_6_notes-25" data-name="note 6"><path class="cls-1_notes-25 targetColor" d="M355,275.08s-8.46,80.08-6.47,86.05S420.65,394,430.1,398.44s33.83,0,33.83,0l9.94-115.9Z" style="fill: rgb(60, 125, 201);"/><path class="cls-2_notes-25" d="M356.36,366.6s21.76,0,33.45-5.22c0,0,24.81,28.14,32.18,33.59C422,395,372.89,376.3,356.36,366.6Z"/><rect class="cls-2_notes-25" x="403.77" y="261.51" width="19.06" height="29.67" transform="matrix(0.99, 0.16, -0.16, 0.99, 48, -60.9)"/></g><g id="note_4_notes-25" data-name="note 4"><polygon class="cls-2_notes-25" points="152.69 273.29 33.57 263.9 20.23 375.26 143.87 385.9 152.69 273.29"/><path class="cls-1_notes-25 targetColor" d="M123.17,262.73l-70.26-6.16s1.94,2.5,1.25,3.33-3.34.56-2.37,1.67a3.79,3.79,0,0,1,1,4.45c-.84,2.22-.28,3.19.55,3.75s-2.78,2.64-1.74,2.78,71.62,5.55,71.62,5.55-2.08-2.91-1.25-3.61,4.08-.22,2.83-2.78-2.27-3.33-.88-4.37-1.39-3-1-3.41A1.47,1.47,0,0,0,123.17,262.73Z" style="fill: rgb(60, 125, 201);"/></g><g id="note_5_notes-25" data-name="note 5"><path class="cls-1_notes-25 targetColor" d="M190.93,262.68l-8.44,120.07s11.16-1.71,20.91,1.47,12.09,5.34,17.86,1.26,7.86-5.43,15.06-1.44,25.37.79,34.3,1.42,8,6.89,14.95,7.21,19,1.34,19,1.34l8.63-122.74Zm9.68,15.21a3.43,3.43,0,1,1,3.66-3.18A3.44,3.44,0,0,1,200.61,277.89Zm16.81,1.18a3.43,3.43,0,1,1,3.66-3.18A3.43,3.43,0,0,1,217.42,279.07Zm16.82,1.18a3.43,3.43,0,1,1,3.66-3.18A3.44,3.44,0,0,1,234.24,280.25Zm16.81,1.19a3.43,3.43,0,1,1,3.66-3.18A3.44,3.44,0,0,1,251.05,281.44Zm16.82,1.18a3.43,3.43,0,1,1,3.66-3.18A3.42,3.42,0,0,1,267.87,282.62Zm16.81,1.18a3.43,3.43,0,1,1,3.67-3.18A3.43,3.43,0,0,1,284.68,283.8ZM301.5,285a3.43,3.43,0,1,1,3.66-3.18A3.42,3.42,0,0,1,301.5,285Z" style="fill: rgb(60, 125, 201);"/><path class="cls-2_notes-25" d="M224.19,284.8a4.65,4.65,0,0,1-4.52-3.56l-4.48-18.49a4.66,4.66,0,0,1,9.06-2.2l4,16.56a.68.68,0,1,1-1.32.32l-4-16.55a3.3,3.3,0,1,0-6.41,1.55L221,280.92a3.3,3.3,0,0,0,4,2.43l2.09-.51a3.29,3.29,0,0,0,2-1.49,3.25,3.25,0,0,0,.39-2.49l-6.2-25.6a5.43,5.43,0,0,0-10.56,2.55l2,8.08a.68.68,0,0,1-1.33.32l-2-8.08a6.79,6.79,0,1,1,13.21-3.19l6.2,25.6a4.67,4.67,0,0,1-3.44,5.62l-2.09.51A4.67,4.67,0,0,1,224.19,284.8Z"/></g><g id="note_3_notes-25" data-name="note 3"><path class="cls-2_notes-25" d="M457.88,111.57l-111,5.47s3.11,90,13.06,120.87l119.87-6.47S461.86,160.32,457.88,111.57Z"/><path class="cls-1_notes-25 targetColor" d="M389.07,137.37h-2.16a4.66,4.66,0,0,1-4.66-4.66v-19a4.66,4.66,0,1,1,9.32,0v17a.68.68,0,0,1-1.36,0v-17a3.3,3.3,0,1,0-6.6,0v19a3.3,3.3,0,0,0,3.3,3.3h2.16a3.3,3.3,0,0,0,3.29-3.3V106.37a5.43,5.43,0,1,0-10.86,0v8.31a.68.68,0,0,1-1.36,0v-8.31a6.8,6.8,0,1,1,13.59,0v26.34A4.66,4.66,0,0,1,389.07,137.37Z" style="fill: rgb(60, 125, 201);"/></g><g id="note_2_notes-25" data-name="note 2"><path class="cls-3_notes-25" d="M186.56,113.62V236.21H309.14V113.62Z"/><path class="cls-2_notes-25" d="M309.14,236.88H186.56a.67.67,0,0,1-.68-.68V113.62a.67.67,0,0,1,.68-.67H309.14a.68.68,0,0,1,.68.67V236.2A.68.68,0,0,1,309.14,236.88Zm-121.9-1.35H308.46V114.3H187.24Z"/><path class="cls-4_notes-25" d="M204.28,230.89a.69.69,0,0,1-.69-.68V117.92a.69.69,0,0,1,1.37,0V230.21A.69.69,0,0,1,204.28,230.89Z"/><path class="cls-4_notes-25" d="M301.74,134.39H194.05a.68.68,0,1,1,0-1.36H301.74a.68.68,0,1,1,0,1.36Z"/><path class="cls-4_notes-25" d="M301.74,155.28H194.05a.68.68,0,0,1,0-1.36H301.74a.68.68,0,0,1,0,1.36Z"/><path class="cls-4_notes-25" d="M301.74,176.18H194.05a.69.69,0,0,1,0-1.37H301.74a.69.69,0,0,1,0,1.37Z"/><path class="cls-4_notes-25" d="M301.74,197.07H194.05a.69.69,0,0,1,0-1.37H301.74a.69.69,0,0,1,0,1.37Z"/><path class="cls-4_notes-25" d="M301.74,218H194.05a.69.69,0,0,1,0-1.37H301.74a.69.69,0,0,1,0,1.37Z"/><path class="cls-2_notes-25" d="M248.05,123.56a9.47,9.47,0,0,0,.82-.84c1.33-1.58,6.4-9.59,6.4-9.59l-2-.84s-5,7.58-5.86,9a5.63,5.63,0,0,0-.59,1.27C247.27,122.88,247.67,123.22,248.05,123.56Z"/><circle class="cls-3_notes-25" cx="254.83" cy="112.32" r="5.6"/><path class="cls-2_notes-25" d="M254.83,118.6a6.28,6.28,0,1,1,6.28-6.28A6.28,6.28,0,0,1,254.83,118.6Zm0-11.19a4.92,4.92,0,1,0,4.92,4.91A4.92,4.92,0,0,0,254.83,107.41Z"/><circle class="cls-3_notes-25" cx="256.58" cy="109.17" r="4.73"/><path class="cls-2_notes-25" d="M256.58,114.59a5.42,5.42,0,1,1,5.42-5.42A5.42,5.42,0,0,1,256.58,114.59Zm0-9.47a4.06,4.06,0,1,0,4.05,4A4.06,4.06,0,0,0,256.58,105.12Z"/></g><g id="note_1_notes-25" data-name="note 1"><path class="cls-1_notes-25 targetColor" d="M41.88,113.62,29.2,237.85l100.72,5.6s28.73-77.23,29.47-112.66Z" style="fill: rgb(60, 125, 201);"/><path class="cls-2_notes-25" d="M129.92,243.45s-2.24-19-14.17-29.85c0,0,27.61-25.92,36.93-42.8C152.68,170.8,140,219.57,129.92,243.45Z"/><rect class="cls-3_notes-25" x="94.3" y="113.6" width="16.23" height="25.54"/><path class="cls-2_notes-25" d="M110.52,139.82H94.3a.69.69,0,0,1-.69-.68V113.6a.68.68,0,0,1,.69-.68h16.22a.68.68,0,0,1,.69.68v25.54A.69.69,0,0,1,110.52,139.82ZM95,138.45h14.86V114.28H95Z"/></g></svg>